<?xml version="1.0" encoding="utf-8"?>
<!-- Generator: Adobe Illustrator 19.2.0, SVG Export Plug-In . SVG Version: 6.00 Build 0)  -->
<svg version="1.1" id="Capa_1" xmlns="http://www.w3.org/2000/svg" xmlns:xlink="http://www.w3.org/1999/xlink" x="0px" y="0px"
	 viewBox="0 0 500 76.2" style="enable-background:new 0 0 500 76.2;" xml:space="preserve">
<style type="text/css">
	.st0{fill:#32DE84;}
</style>
<g transform="matrix(.5 0 0 .5 114.401 -675.803)">
	<path class="st0" d="M703,1397.6l22.1-38.2c1.2-2.1,0.5-4.9-1.6-6.1c-2.1-1.2-4.9-0.5-6.1,1.6l-22.4,38.7
		c-17.1-7.8-36.3-12.1-56.9-12.1s-39.9,4.3-56.9,12.1l-22.4-38.7c-1.2-2.1-4-2.9-6.1-1.6c-2.1,1.2-2.9,4-1.6,6.1l22.1,38.2
		c-38.1,20.6-63.9,59.2-68.1,104.3h266.2C766.9,1456.8,741.1,1418.3,703,1397.6L703,1397.6z M577,1464.5c-6.2,0-11.2-5-11.2-11.2
		c0-6.2,5-11.2,11.2-11.2c6.2,0,11.2,5,11.2,11.2C588.2,1459.5,583.2,1464.5,577,1464.5z M699.2,1464.5c-6.2,0-11.2-5-11.2-11.2
		c0-6.2,5-11.2,11.2-11.2c6.2,0,11.2,5,11.2,11.2C710.4,1459.5,705.4,1464.5,699.2,1464.5z"/>
	<g transform="matrix(.907308 0 0 .907308 904.544 353.831)">
		<g>
			<path d="M-1196.3,1153.3c-26,0-52.8,20.8-52.8,57.3c0,33.4,23.5,56.9,52.8,56.9c24.1,0,34.9-16.2,34.9-16.2v7.1
				c0,3.3,3.2,7.1,7.1,7.1h17.5v-109.7h-24.5v13.9C-1161.4,1169.7-1172.3,1153.3-1196.3,1153.3z M-1192,1175.7
				c21.4,0,32.7,18.8,32.7,34.9c0,17.9-13.3,34.9-32.6,34.9c-16.1,0-32.2-13.1-32.2-35.1C-1224.2,1190.5-1210.3,1175.7-1192,1175.7z
				"/>
			<path d="M-1102.8,1265.5c-3.8,0-7.1-2.7-7.1-7.1v-102.7h24.5v13.6c5.5-8.3,16.4-16.1,33.1-16.1c27.2,0,41.7,21.7,41.7,42v70.2
				h-17c-4.5,0-7.5-3.7-7.5-7.5v-57.4c0-11.2-6.9-24.9-22.8-24.9c-17.2,0-27.4,16.3-27.4,31.6v58.2L-1102.8,1265.5z"/>
			<path d="M-939.1,1153.3c-26,0-52.8,20.8-52.8,57.3c0,33.4,23.5,56.9,52.8,56.9c24.2,0,34.9-16.2,34.9-16.2v7.1
				c0,3.3,3.2,7.1,7.1,7.1h17.5v-164.6h-24.5v68.8C-904.2,1169.7-915,1153.3-939.1,1153.3z M-934.7,1175.7
				c21.4,0,32.7,18.8,32.7,34.9c0,17.9-13.3,34.9-32.6,34.9c-16.1,0-32.2-13.1-32.2-35.1C-966.9,1190.5-953,1175.7-934.7,1175.7z"/>
			<path d="M-845.6,1265.5c-3.8,0-7.1-2.7-7.1-7.1v-102.7h24.5v18.3c4.2-10.2,13.3-19.5,29.5-19.5c4.5,0,8.7,0.8,8.7,0.8v25.3
				c0,0-5.3-2.1-11.6-2.1c-17.2,0-26.6,16.3-26.6,31.6v55.3H-845.6z"/>
			<path d="M-641.1,1265.5c-3.8,0-7.1-2.7-7.1-7.1v-102.7h24.5v109.7H-641.1z"/>
			<path d="M-551.7,1153.3c-26,0-52.8,20.8-52.8,57.3c0,33.4,23.5,56.9,52.8,56.9c24.2,0,34.9-16.2,34.9-16.2v7.1
				c0,3.3,3.2,7.1,7.1,7.1h17.5v-164.6h-24.5v68.8C-516.8,1169.7-527.6,1153.3-551.7,1153.3L-551.7,1153.3z M-547.3,1175.7
				c21.4,0,32.7,18.8,32.7,34.9c0,17.9-13.3,34.9-32.6,34.9c-16.1,0-32.2-13.1-32.2-35.1C-579.5,1190.5-565.7,1175.7-547.3,1175.7
				L-547.3,1175.7z"/>
		</g>
		<circle cx="-636.1" cy="1115.9" r="16.2"/>
		<path d="M-725.2,1153.3c-27.3,0-57.2,20.3-57.2,57.2c0,33.6,25.5,57.1,57.1,57.1c39,0,58-31.3,58-56.9
			C-667.2,1179.3-691.7,1153.3-725.2,1153.3L-725.2,1153.3z M-725.1,1176.2c18.8,0,32.9,15.2,32.9,34.4c0,19.5-14.9,34.6-32.8,34.6
			c-16.6,0-32.8-13.5-32.8-34.2C-757.9,1189.8-742.5,1176.2-725.1,1176.2L-725.1,1176.2z"/>
	</g>
</g>
</svg>
