<?xml version="1.0" encoding="utf-8"?>
<!-- Generator: Adobe Illustrator 19.2.0, SVG Export Plug-In . SVG Version: 6.00 Build 0)  -->
<svg version="1.1" id="Capa_1" xmlns="http://www.w3.org/2000/svg" xmlns:xlink="http://www.w3.org/1999/xlink" x="0px" y="0px"
	 viewBox="0 0 2500 679" style="enable-background:new 0 0 2500 679;" xml:space="preserve">
<style type="text/css">
	.st0{fill:#B52E31;}
	.st1{fill:#E23237;}
	.st2{fill:#FFFFFF;}
</style>
<g>
	<g>
		<path class="st0" d="M735.4,502.1V194.5h39.6l188,247.6V194.5h37.6v307.6h-39.6l-188-250v250H735.4z M1306.6,489.9
			c-24.9,9.3-51.8,14.2-80.1,14.2c-111.3,0-167-53.2-167-160.2c0-101.1,53.7-151.9,161.1-151.9c30.8,0,59.6,4.4,85.9,12.7v34.2
			c-26.4-10.3-53.7-15.1-81.5-15.1c-84,0-126,40-126,119.1c0,85.4,41.5,127.9,124,127.9c13.2,0,27.8-2,43.9-5.4v-103h39.6V489.9
			L1306.6,489.9z M1370.1,383.4v-189h39.6v189c0,59.1,29.3,88.9,88.4,88.9c58.6,0,88.4-29.8,88.4-88.9v-189h39.6v189
			c0,80.6-42.5,121.1-127.9,121.1S1370.1,464,1370.1,383.4z M1736.3,194.5v275.4h161.1v32.2h-200.7V194.5L1736.3,194.5L1736.3,194.5
			z M1954.6,502.1h-41.5L2065.9,154l152.8,348.1h-43.9l-39.6-96.7h-101.6l10.7-32.2h77.6L2064.5,234L1954.6,502.1L1954.6,502.1z
			 M2261.2,502.1V194.5h131.3c58.6,0,87.9,24.4,87.9,73.7c0,40-28.8,69.8-85.9,88.9l105.5,145h-52.2l-97.7-138.2V338
			c58.6-9.3,88.4-31.7,88.4-67.9c0-28.3-16.1-42.5-48.8-42.5h-87.9v274.4L2261.2,502.1L2261.2,502.1z"/>
	</g>
	<path class="st1" d="M0,112.4L314.9,0.1l323.2,110.4L585.9,527l-271,149.9L48.3,529L0,112.4z"/>
	<path class="st0" d="M638.2,110.5L314.9,0.1v676.8l271-149.9L638.2,110.5L638.2,110.5z"/>
	<path class="st2" d="M315.4,79.2L119.1,515.8l73.2-1.5l39.6-98.6h175.3l43,99.6l69.8,1.5L315.4,79.2L315.4,79.2z M315.9,219.4
		l66.4,138.7H257.8L315.9,219.4z"/>
</g>
</svg>
