<?xml version="1.0" encoding="utf-8"?>
<!-- Generator: Adobe Illustrator 19.2.0, SVG Export Plug-In . SVG Version: 6.00 Build 0)  -->
<svg version="1.1" id="Capa_1" xmlns="http://www.w3.org/2000/svg" xmlns:xlink="http://www.w3.org/1999/xlink" x="0px" y="0px"
	 viewBox="0 0 300 337.5" style="enable-background:new 0 0 300 337.5;" xml:space="preserve">
<style type="text/css">
	.st0{fill:#5C8DBC;}
	.st1{fill:#1A4674;}
	.st2{fill:#1B598E;}
	.st3{fill:#FFFFFF;}
</style>
<g>
	<path class="st0" d="M300,99.1c0-5.7-1.2-10.7-3.7-15c-2.4-4.2-6-7.8-10.9-10.6c-39.9-23-79.9-46-119.8-69
		c-10.8-6.2-21.2-6-31.9,0.3c-15.9,9.4-95.5,55-119.2,68.7C4.8,79.2,0,87.9,0,99.1c0,46.3,0,92.6,0,138.9c0,5.5,1.2,10.5,3.5,14.7
		c2.4,4.4,6.1,8,11,10.9c23.7,13.7,103.3,59.3,119.2,68.7c10.7,6.3,21.1,6.5,31.9,0.3c39.9-23.1,79.9-46,119.9-69
		c4.9-2.9,8.6-6.5,11-10.9c2.3-4.2,3.5-9.1,3.5-14.7C300,238,300,145.4,300,99.1"/>
	<path class="st1" d="M150.5,168.1l-147,84.6c2.4,4.4,6.1,8,11,10.9c23.7,13.7,103.3,59.3,119.2,68.7c10.7,6.3,21.1,6.5,31.9,0.3
		c39.9-23.1,79.9-46,119.9-69c4.9-2.9,8.6-6.5,11-10.9L150.5,168.1"/>
	<path class="st1" d="M106.9,193.2c8.6,14.9,24.6,25,43.1,25c18.6,0,34.7-10.2,43.2-25.3l-42.8-24.8L106.9,193.2"/>
	<path class="st2" d="M300,99.1c0-5.7-1.2-10.7-3.7-15l-145.9,84l146,84.6c2.3-4.2,3.5-9.1,3.5-14.7C300,238,300,145.4,300,99.1"/>
	<path class="st3" d="M292,174.2h-11.4v11.4h-11.4v-11.4h-11.4v-11.4h11.4v-11.4h11.4v11.4H292V174.2 M250.3,174.2h-11.4v11.4h-11.4
		v-11.4h-11.4v-11.4h11.4v-11.4h11.4v11.4h11.4V174.2"/>
	<path class="st3" d="M193.2,192.9c-8.5,15.1-24.7,25.3-43.2,25.3c-18.4,0-34.5-10.1-43.1-25c-4.3-7.5-6.6-16-6.5-24.6
		c0-27.4,22.2-49.6,49.6-49.6c18.3,0,34.3,9.9,42.9,24.7l43.4-25C219,89,186.9,69,150,69c-55,0-99.6,44.6-99.6,99.6
		c0,18.1,4.8,35,13.2,49.6c17.2,29.9,49.5,50,86.4,50c37,0,69.4-20.2,86.5-50.2L193.2,192.9"/>
</g>
</svg>
