<?xml version="1.0" encoding="utf-8"?>
<!-- Generator: Adobe Illustrator 19.2.0, SVG Export Plug-In . SVG Version: 6.00 Build 0)  -->
<svg version="1.1" id="Capa_1" xmlns="http://www.w3.org/2000/svg" xmlns:xlink="http://www.w3.org/1999/xlink" x="0px" y="0px"
	 viewBox="0 0 300 337.4" style="enable-background:new 0 0 300 337.4;" xml:space="preserve">
<style type="text/css">
	.st0{fill:#9A4993;}
	.st1{fill:#6A1577;}
	.st2{fill:#813084;}
	.st3{fill:#FFFFFF;}
</style>
<g>
	<path class="st0" d="M300,99.1c0-5.6-1.2-10.7-3.7-15c-2.4-4.3-6-7.8-10.8-10.5c-39.9-23-79.9-46-119.9-69
		c-10.8-6.2-21.2-6-31.9,0.3c-15.9,9.3-95.6,55-119.2,68.8C4.7,79.2,0,87.9,0,99.2v139c0,5.5,1.2,10.4,3.5,14.7
		c2.4,4.3,6.1,8,11,10.9c23.8,13.8,103.3,59.3,119.2,68.8c10.7,6.3,21.2,6.6,31.9,0.3c39.9-23.1,79.9-46,119.9-69
		c5-2.9,8.6-6.5,11-10.9c2.3-4.3,3.5-9.1,3.5-14.7V99.1z"/>
	<path class="st1" d="M150.4,168.1l-147,84.7c2.4,4.3,6.1,8,11,10.9c23.8,13.8,103.3,59.3,119.2,68.8c10.7,6.3,21.2,6.6,31.9,0.3
		c39.9-23.1,79.9-46,119.9-69c5-2.9,8.6-6.5,11-10.9L150.4,168.1z"/>
	<path class="st1" d="M106.8,193.2c8.6,15,24.7,25,43.1,25c18.6,0,34.8-10.2,43.3-25.3l-42.8-24.8L106.8,193.2z"/>
	<path class="st2" d="M300,99.1c0-5.6-1.2-10.7-3.7-15l-145.9,84l146.1,84.7c2.3-4.3,3.5-9.1,3.5-14.7V99.1z"/>
	<g>
		<path class="st3" d="M193.2,192.9c-8.5,15.1-24.7,25.3-43.3,25.3c-18.5,0-34.6-10.1-43.1-25c-4.2-7.3-6.6-15.6-6.6-24.6
			c0-27.4,22.2-49.6,49.6-49.6c18.3,0,34.3,10,42.9,24.8l43.3-25C218.9,89,186.7,69,149.8,69c-55.1,0-99.6,44.6-99.6,99.6
			c0,18,4.8,35,13.2,49.6c17.2,29.9,49.5,50,86.5,50c37.1,0,69.4-20.2,86.6-50.3L193.2,192.9z M248,145h-9.9v47.8h9.9V145z
			 M269.9,145H260v47.8h9.9V145z"/>
		<path class="st3" d="M277.9,153.1h-47.8v9.9h47.8L277.9,153.1z M277.9,174.9h-47.8v9.9h47.8L277.9,174.9z"/>
	</g>
</g>
</svg>
