<?xml version="1.0" encoding="utf-8"?>
<!-- Generator: Adobe Illustrator 19.2.0, SVG Export Plug-In . SVG Version: 6.00 Build 0)  -->
<svg version="1.1" id="Capa_1" xmlns="http://www.w3.org/2000/svg" xmlns:xlink="http://www.w3.org/1999/xlink" x="0px" y="0px"
	 viewBox="0 0 2500 2100" style="enable-background:new 0 0 2500 2100;" xml:space="preserve">
<style type="text/css">
	.st0{fill:#364548;}
	.st1{fill:#22A0C8;}
	.st2{fill:#37B1D9;}
	.st3{fill:#1B81A5;}
	.st4{fill:#1D91B4;}
	.st5{fill:#23A3C2;}
	.st6{fill:#34BBDE;}
	.st7{fill:#D3ECEC;}
	.st8{fill:#BDD9D7;}
</style>
<g>
	<path class="st0" d="M377.1,1699.3v-159.8c0-21,13.1-37.9,34.9-37.9h6c21.7,0,34.8,16.9,34.8,37.9v336.4
		c0,82-40.5,147.3-111.2,188.9c-32.4,19.2-69.3,29.2-106.9,29.2h-15c-82.1,0-147.2-40.6-188.9-111.1
		c-19.2-32.3-29.3-69.3-29.1-106.9v-15c0-82.1,40.5-147.3,111.1-189c32.3-19.2,69.3-29.3,106.9-29.2h15
		C290.3,1642.8,337.4,1664.3,377.1,1699.3L377.1,1699.3z M77.4,1868.4c0,59.3,28.7,103.8,80.6,132.2c21,11.5,43.8,17.7,67.7,17.7
		c58.2,0,101.3-27.4,131.1-76.7c13.8-22.9,20.3-48,20.3-74.7c0-51.4-24.3-91.5-65.7-121.2c-25.1-18-53.3-27.1-84.2-27.1
		c-63.4,0-109,32-136.4,88.9C81.6,1826.7,77.4,1847.1,77.4,1868.4L77.4,1868.4z M715.3,1642.8h10.5c87.7,0,154.4,42.5,196.6,119.1
		c16.9,30.6,25.9,64,25.9,99v15c0,82-40.4,147.4-111.2,188.9c-32.7,19.2-68.9,29.1-106.9,29.1h-15c-82.1,0-147.3-40.6-188.9-111.1
		c-19.2-32.3-29.3-69.3-29.2-106.9v-15c0-82.1,40.7-147.1,111.1-188.9C641.1,1652.5,677.3,1642.8,715.3,1642.8L715.3,1642.8z
		 M572.9,1868.4c0,57.5,28.2,99.8,76.8,129.6c22.8,14,47.9,20.3,74.6,20.3c56.8,0,98.8-28.8,128.1-76.8c13.9-22.9,20.3-48,20.3-74.6
		c0-53.5-25.8-94.3-69.8-124c-24.1-16.2-51-24.4-80.1-24.4c-63.4,0-109,32-136.4,88.9C577.1,1826.7,572.9,1847.1,572.9,1868.4
		L572.9,1868.4z M1262.9,1724.5c-11.4-5.4-32.8-7.1-45.2-7.6c-63.2-2.4-109,33.2-135.8,89c-9.3,19.2-13.5,39.6-13.5,60.9
		c0,64.8,34,110.2,91.9,137.9c21.1,10.1,48.4,12,71.5,12c20.3,0,49-12.4,67.1-21l3.1-1.5h14l1.5,0.3c17.2,3.6,30.2,14.5,30.2,33v7.5
		c0,46.1-84.2,56.6-116.3,58.9c-113.4,7.8-198.2-54.4-230.5-162.6c-5.6-18.8-8.1-37.4-8.1-57v-15c0-82.1,40.7-147.1,111.1-188.9
		c32.7-19.4,68.9-29.2,106.9-29.2h15c40.3,0,77.5,11.5,110.8,34.2l2.7,1.9l1.7,2.9c3.6,6,6.7,12.9,6.7,19.9v7.5
		c0,19.3-14.5,29.7-31.9,33.1l-1.4,0.3h-4.5C1298.7,1741,1273,1729.3,1262.9,1724.5L1262.9,1724.5z M1508.4,1775.8
		c29.4-29.4,58.9-58.8,88.7-87.8c8.3-8.1,39.8-42.3,52.2-42.3h13.6l1.5,0.3c17.3,3.6,30.2,14.5,30.2,33.1v7.5
		c0,12.7-14.8,27.4-23,36c-17.4,18.4-35.7,36.3-53.5,54.3l-91.4,92.8c39.4,39.5,78.7,78.9,117.7,118.7c10.8,11,21.6,22,32.2,33.2
		c3.8,4,9.3,8.9,12.5,14.4c3.4,5.1,5.5,10.9,5.5,17.1v7.8l-0.4,1.8c-4.2,17.3-15.2,31.2-34.3,31.2h-6c-12.5,0-26.7-14.2-35.2-22.3
		c-17.7-16.7-34.7-34.2-52.1-51.2l-58.1-57v91.2c0,21-13.1,37.9-34.9,37.9h-6c-21.7,0-34.9-16.9-34.9-37.9v-513.6
		c0-21,13.1-37.8,34.9-37.8h6c21.7,0,34.9,16.8,34.9,37.8V1775.8L1508.4,1775.8z M2451.5,1645.8h7.5c22.7,0,37.8,15.3,37.8,37.9
		c0,31.3-30,39.3-55.9,39.3c-34,0-66.4,20.6-89.9,43.7c-29.2,28.8-42,65.7-42,106.2v183.2c0,21-13.1,37.9-34.9,37.9h-6
		c-21.7,0-34.9-16.8-34.9-37.9v-193.7c0-74.4,36.2-135.1,96.6-177.7C2366.1,1659.2,2407.4,1645.8,2451.5,1645.8L2451.5,1645.8z
		 M1913.7,2008.8c27.5,9.6,58.9,8.2,87.2,3.3c14.5-6.1,51.4-22.3,65-19.9l2.1,0.4l2,1c8.3,4,16.2,9.7,20.5,18.2
		c9.9,19.8,5.1,39.7-14.3,50.9l-6.5,3.7c-71.8,41.4-148.1,35.7-219.7-3c-34.2-18.5-60.4-45.9-79.7-79.4l-4.5-7.8
		c-46.1-79.8-39.9-163.8,12.1-239.6c17.9-26.2,41.4-46.5,68.8-62.3l10.4-6c67.6-39,140-36.3,209.5-2.1c37.3,18.4,67.6,45.9,88.4,82
		l3.8,6.5c15.1,26.2-4.5,49.1-24.7,64.7c-23.5,18.1-47.2,39.9-69.7,59.4C2014,1922,1963.9,1965.4,1913.7,2008.8L1913.7,2008.8z
		 M1848.7,1963.2c56.2-48.1,112.3-96.3,168.3-144.7c19.1-16.5,40.1-33.6,59.1-51c-15.2-19.2-40.7-33-62.3-41.3
		c-43.7-16.6-86.7-11-126.7,12.1c-52.4,30.3-74.7,78.4-72.8,138.4c0.8,23.6,7.1,46.4,19.7,66.5
		C1838.4,1950.2,1843.4,1956.8,1848.7,1963.2z M1440.3,446.8h223.3v228.3h112.9c52.1,0,105.8-9.3,155.1-26
		c24.3-8.2,51.5-19.7,75.4-34.1c-31.5-41.2-47.6-93.1-52.3-144.3c-6.4-69.7,7.6-160.4,54.8-214.9l23.5-27.1l28,22.5
		c70.4,56.6,129.6,135.6,140.1,225.8c84.8-24.9,184.4-19,259.1,24.1l30.7,17.7l-16.1,31.5c-63.2,123.4-195.4,161.6-324.6,154.8
		c-193.3,481.5-614.2,709.5-1124.6,709.5c-263.7,0-505.6-98.6-643.3-332.5l-2.3-3.8l-20.1-40.8c-46.6-103-62-215.8-51.5-328.5
		l3.2-33.8h191V446.8h223.3V223.5h446.6V0.2h268V446.8"/>
	<path class="st1" d="M2163.8,531.2c15-116.4-72.1-207.8-126.1-251.2c-62.2,72-71.9,260.5,25.7,339.9
		c-54.5,48.4-169.3,92.3-286.9,92.3H345.4C334,835,355.5,948,404.7,1044.7l16.3,29.8c10.3,17.5,21.6,34.4,33.7,50.6
		c58.8,3.8,113.1,5.1,162.7,4h0c97.5-2.1,177.1-13.7,237.4-34.6c9.1-2.8,18.7,2.2,21.5,11.3c2.7,8.7-1.8,17.9-10.3,21.2
		c-8,2.8-16.4,5.4-25,7.9h0c-47.5,13.6-98.4,22.7-164.1,26.7c3.9,0.1-4.1,0.6-4.1,0.6c-2.2,0.1-5,0.5-7.3,0.6
		c-25.9,1.5-53.8,1.8-82.3,1.8c-31.2,0-61.9-0.6-96.3-2.3l-0.9,0.6c119.2,134,305.7,214.4,539.4,214.4
		c494.6,0,914.1-219.3,1099.9-711.5c131.8,13.5,258.5-20.1,316.1-132.6C2349.8,480.2,2231.7,497.1,2163.8,531.2"/>
	<path class="st2" d="M2163.8,531.2c15-116.4-72.1-207.8-126.1-251.2c-62.2,72-71.9,260.5,25.7,339.9
		c-54.5,48.4-169.3,92.3-286.9,92.3H430.2c-5.8,187.9,63.9,330.6,187.3,416.9h0c97.5-2.1,177.1-13.7,237.4-34.6
		c9.1-2.8,18.7,2.2,21.5,11.3c2.7,8.7-1.8,17.9-10.3,21.2c-8,2.8-16.4,5.4-25,7.9h0c-47.5,13.6-102.8,23.9-168.5,27.9
		c0,0-1.6-1.5-1.6-1.5c168.3,86.3,412.4,86,692.2-21.5C1677,1019.3,1969,789.7,2172.7,527C2169.7,528.4,2166.7,529.8,2163.8,531.2"
		/>
	<path class="st3" d="M348.1,861.4c8.9,65.7,28.1,127.3,56.6,183.4l16.3,29.8c10.3,17.5,21.6,34.4,33.7,50.6
		c58.8,3.8,113.1,5.1,162.7,4c97.5-2.1,177.1-13.7,237.4-34.6c9.1-2.8,18.7,2.2,21.5,11.3c2.7,8.7-1.8,17.9-10.3,21.2
		c-8,2.8-16.4,5.4-25,7.9h0c-47.5,13.6-102.5,23.3-168.2,27.3c-2.3,0.1-6.2,0.2-8.5,0.3c-25.8,1.4-53.5,2.3-82,2.3
		c-31.2,0-63.1-0.6-97.5-2.3c119.2,134,306.8,214.7,540.5,214.7c423.4,0,791.8-160.7,1005.7-515.8H348.1"/>
	<path class="st4" d="M443,861.4c25.3,115.4,86.1,206,174.5,267.8c97.5-2.1,177.1-13.7,237.4-34.6c9.1-2.8,18.7,2.2,21.5,11.3
		c2.7,8.7-1.8,17.9-10.3,21.2c-8,2.8-16.4,5.4-25,7.9h0c-47.5,13.6-103.7,23.3-169.4,27.3c168.3,86.3,411.7,85.1,691.5-22.4
		c169.3-65,332.2-161.9,478.4-278.5H443"/>
	<path class="st5" d="M539.6,484h193.5v193.5H539.6V484z M555.8,500.1H571v161.3h-15.3V500.1z M584.5,500.1h15.9v161.3h-15.9
		L584.5,500.1L584.5,500.1z M613.8,500.1h15.9v161.3h-15.9V500.1z M643.1,500.1H659v161.3h-15.9V500.1z M672.5,500.1h15.9v161.3
		h-15.9L672.5,500.1L672.5,500.1z M701.8,500.1h15.3v161.3h-15.3V500.1z M762.9,260.7h193.5v193.5H762.9L762.9,260.7L762.9,260.7z
		 M779.1,276.8h15.3v161.3h-15.3V276.8z M807.8,276.8h15.9v161.3h-15.9L807.8,276.8L807.8,276.8z M837.1,276.8H853v161.3h-15.9
		V276.8z M866.4,276.8h15.9v161.3h-15.9V276.8z M895.8,276.8h15.9v161.3h-15.9V276.8z M925.1,276.8h15.3v161.3h-15.3V276.8z"/>
	<path class="st6" d="M762.9,484h193.5v193.5H762.9L762.9,484L762.9,484z M779.1,500.1h15.3v161.3h-15.3V500.1z M807.8,500.1h15.9
		v161.3h-15.9L807.8,500.1L807.8,500.1z M837.1,500.1H853v161.3h-15.9V500.1z M866.4,500.1h15.9v161.3h-15.9V500.1z M895.8,500.1
		h15.9v161.3h-15.9V500.1z M925.1,500.1h15.3v161.3h-15.3V500.1z"/>
	<path class="st5" d="M986.3,484h193.5v193.5H986.3V484z M1002.4,500.1h15.3v161.3h-15.3V500.1z M1031.1,500.1h15.9v161.3h-15.9
		V500.1z M1060.4,500.1h15.9v161.3h-15.9V500.1z M1089.7,500.1h15.9v161.3h-15.9V500.1z M1119.1,500.1h15.9v161.3h-15.9V500.1z
		 M1148.4,500.1h15.3v161.3h-15.3V500.1z"/>
	<path class="st6" d="M986.3,260.7h193.5v193.5H986.3V260.7z M1002.4,276.8h15.3v161.3h-15.3V276.8z M1031.1,276.8h15.9v161.3h-15.9
		V276.8z M1060.4,276.8h15.9v161.3h-15.9V276.8z M1089.7,276.8h15.9v161.3h-15.9V276.8z M1119.1,276.8h15.9v161.3h-15.9V276.8z
		 M1148.4,276.8h15.3v161.3h-15.3V276.8z M1209.6,484h193.5v193.5h-193.5V484z M1225.7,500.1h15.3v161.3h-15.3V500.1z M1254.4,500.1
		h15.9v161.3h-15.9V500.1z M1283.7,500.1h15.9v161.3h-15.9V500.1z M1313,500.1h15.9v161.3H1313V500.1z M1342.4,500.1h15.9v161.3
		h-15.9V500.1z M1371.7,500.1h15.3v161.3h-15.3V500.1z"/>
	<path class="st5" d="M1209.6,260.7h193.5v193.5h-193.5V260.7z M1225.7,276.8h15.3v161.3h-15.3V276.8z M1254.4,276.8h15.9v161.3
		h-15.9V276.8z M1283.7,276.8h15.9v161.3h-15.9V276.8z M1313,276.8h15.9v161.3H1313V276.8z M1342.4,276.8h15.9v161.3h-15.9V276.8z
		 M1371.7,276.8h15.3v161.3h-15.3V276.8z"/>
	<path class="st6" d="M1209.6,37.4h193.5V231h-193.5V37.4z M1225.7,53.5h15.3v161.3h-15.3V53.5L1225.7,53.5z M1254.4,53.5h15.9
		v161.3h-15.9V53.5L1254.4,53.5z M1283.7,53.5h15.9v161.3h-15.9V53.5L1283.7,53.5z M1313,53.5h15.9v161.3H1313V53.5L1313,53.5z
		 M1342.4,53.5h15.9v161.3h-15.9V53.5L1342.4,53.5z M1371.7,53.5h15.3v161.3h-15.3V53.5L1371.7,53.5z"/>
	<path class="st5" d="M1432.9,484h193.5v193.5h-193.5V484z M1449,500.1h15.3v161.3H1449L1449,500.1L1449,500.1z M1477.7,500.1h15.9
		v161.3h-15.9L1477.7,500.1L1477.7,500.1z M1507,500.1h15.9v161.3H1507V500.1z M1536.3,500.1h15.9v161.3h-15.9V500.1z M1565.7,500.1
		h15.9v161.3h-15.9V500.1z M1595,500.1h15.3v161.3H1595V500.1z"/>
	<path class="st7" d="M944.4,991.3c29.5-0.4,53.7,23.2,54.1,52.7c0.4,29.5-23.2,53.7-52.7,54.1c-0.5,0-1,0-1.4,0
		c-29.5-0.4-53.1-24.6-52.7-54.1C892.1,1015.1,915.4,991.7,944.4,991.3"/>
	<path class="st0" d="M944.4,1006.5c4.9,0,9.5,0.9,13.8,2.6c-7.5,4.3-10,13.9-5.7,21.3c2.8,4.8,7.9,7.8,13.5,7.8
		c5.9,0,11-3.3,13.7-8.1c8.1,19.5-1.2,41.9-20.7,50c-19.5,8.1-41.9-1.2-50-20.7c-8.1-19.5,1.2-41.9,20.7-50
		C934.4,1007.5,939.3,1006.5,944.4,1006.5 M0,880.7h2483.7c-54.1-13.7-171.1-32.2-151.8-103.1c-98.3,113.8-335.5,79.8-395.3,23.7
		c-66.6,96.7-454.6,59.9-481.7-15.4c-83.6,98.1-342.5,98.1-426,0c-27.1,75.3-415.1,112.1-481.7,15.4c-59.8,56.1-297,90.1-395.3-23.7
		C171.1,848.4,54.1,867,0,880.7"/>
	<path class="st8" d="M1086.3,1376.1c-132.2-62.7-204.8-148-245.2-241.2c-49.1,14-108.2,23-176.8,26.8c-25.8,1.4-53,2.2-81.5,2.2
		c-32.9,0-67.5-1-103.9-2.9c121.3,121.2,270.4,214.5,546.6,216.2C1045.9,1377.2,1066.2,1376.8,1086.3,1376.1"/>
	<path class="st7" d="M890.2,1220.8c-18.3-24.8-36-56-49.1-85.9c-49.1,14-108.2,23-176.8,26.9C711.5,1187.3,778.9,1211,890.2,1220.8
		"/>
</g>
</svg>
