<?xml version="1.0" encoding="utf-8"?>
<!-- Generator: Adobe Illustrator 19.2.0, SVG Export Plug-In . SVG Version: 6.00 Build 0)  -->
<svg version="1.1" id="Capa_1" xmlns="http://www.w3.org/2000/svg" xmlns:xlink="http://www.w3.org/1999/xlink" x="0px" y="0px"
	 viewBox="0 0 2500 438" style="enable-background:new 0 0 2500 438;" xml:space="preserve">
<style type="text/css">
	.st0{fill:#EA4335;}
	.st1{fill:#4285F4;}
	.st2{fill:#34A853;}
	.st3{fill:#FBBC05;}
	.st4{fill:#5F6368;}
</style>
<path class="st0" d="M308.2,130.8h14l40-40l2-17C289.7,8,176,15.1,110.3,89.6c-18.3,20.7-31.5,45.3-38.7,71.9
	c4.5-1.8,9.4-2.1,14-0.8l80-13.2c0,0,4.1-6.7,6.2-6.3c35.6-39.1,95.5-43.7,136.6-10.4L308.2,130.8z"/>
<path class="st1" d="M419.3,161.6c-9.2-33.9-28.1-64.3-54.3-87.6l-56.2,56.2c23.7,19.4,37.2,48.6,36.7,79.2v10c27.6,0,50,22.4,50,50
	s-22.4,50-50,50h-100l-10,10.1v60l10,10h100c71.8,0.6,130.5-57.2,131-129C476.8,226.8,455.3,185.9,419.3,161.6z"/>
<path class="st2" d="M145.3,398.7h100v-80h-100c-7.1,0-14.2-1.5-20.6-4.5l-14,4.4l-40.3,40l-3.5,14
	C89.4,389.7,116.9,398.9,145.3,398.7L145.3,398.7z"/>
<path class="st3" d="M145.3,139.1c-71.8,0.4-129.7,59-129.3,130.8c0.2,40.1,19,77.9,50.8,102.3l58-58c-25.2-11.4-36.3-41-25-66.1
	s41-36.3,66.1-25c11.1,5,20,13.9,25,25l58-58C224.2,157.8,185.9,138.9,145.3,139.1z"/>
<g>
	<path class="st4" d="M742.7,342.9c-34.8,0.4-68.2-13.3-92.7-38.1c-25.2-23.7-39.3-56.9-38.9-91.6c-0.4-34.6,13.7-67.8,38.9-91.6
		c24.3-25,57.8-39,92.7-38.8c33.2-0.4,65.3,12.5,88.9,35.8l-25,25.4c-17.1-16.5-40.1-25.6-63.9-25.3c-25-0.3-48.9,9.9-66,28.1
		c-17.8,17.6-27.5,41.7-27.1,66.7c-0.2,24.7,9.6,48.5,27.1,65.9c36.2,36,94.4,36.7,131.4,1.5c11-12.1,17.8-27.4,19.2-43.7h-84.3v-36
		h119.2c1.2,7.2,1.6,14.6,1.4,21.9c1.5,30.7-9.6,60.6-30.8,82.9C809.4,330.7,776.6,344,742.7,342.9L742.7,342.9z M1019.9,319
		c-33.2,31.9-85.7,31.9-118.9,0c-16.1-15.6-24.9-37.3-24.3-59.7c-0.6-22.4,8.2-44.1,24.3-59.7c33.3-31.8,85.7-31.8,118.9,0
		c16.1,15.6,24.9,37.3,24.3,59.7c0.6,22.4-8.3,44.1-24.4,59.7H1019.9z M927.2,295.5c17.2,18.3,46,19.3,64.3,2.1
		c0.7-0.7,1.4-1.4,2.1-2.1c9.4-9.7,14.4-22.8,14-36.2c0.4-13.5-4.6-26.6-14-36.4c-17.7-18.4-46.9-19-65.3-1.4
		c-0.5,0.5-0.9,0.9-1.4,1.4c-9.4,9.7-14.5,22.8-14,36.4c-0.4,13.5,4.8,26.6,14.2,36.2H927.2z M1202.7,319
		c-33.2,31.9-85.7,31.9-118.9,0c-16.1-15.6-24.9-37.3-24.3-59.7c-0.6-22.4,8.2-44.1,24.3-59.7c33.2-31.9,85.7-31.9,118.9,0
		c16.1,15.6,24.9,37.3,24.3,59.7C1227.6,281.7,1218.8,303.4,1202.7,319z M1110,295.5c17.2,18.3,46,19.3,64.3,2.1
		c0.7-0.7,1.4-1.4,2.1-2.1c9.4-9.7,14.4-22.8,14-36.2c0.4-13.5-4.6-26.6-14-36.4c-17.7-18.4-46.9-19-65.3-1.4
		c-0.5,0.5-0.9,0.9-1.4,1.4c-9.4,9.7-14.5,22.8-14,36.4c-0.4,13.5,4.8,26.6,14.2,36.2H1110z M1322.9,417.8
		c-16.8,0.5-33.3-4.7-46.8-14.9c-11.9-9-21.3-20.9-27.2-34.5l32-13.3c3.5,8.2,8.9,15.4,15.9,20.9c7.4,6,16.7,9.1,26.3,8.8
		c12.2,0.7,24.2-3.9,32.7-12.6c8.5-10.2,12.6-23.3,11.7-36.5v-12.1h-1.3c-10.9,12.9-27.1,19.9-44,19c-21.3,0.1-41.7-8.8-56.2-24.4
		c-15.7-15.5-24.4-36.8-24-58.8c-0.4-22.2,8.3-43.6,24-59.3c14.5-15.7,34.8-24.6,56.2-24.6c8.9,0,17.8,2,25.8,5.8
		c7,3.1,13.2,7.6,18.3,13.3h1.3v-13.3h34.8v149.6c1.9,23.9-6.2,47.5-22.3,65.3C1364.8,410.7,1344.1,418.6,1322.9,417.8L1322.9,417.8
		z M1325.5,310c12.1,0.3,23.8-4.9,31.7-14c8.7-9.9,13.2-22.8,12.8-36c0.5-13.4-4-26.5-12.8-36.7c-8-9.2-19.6-14.3-31.7-14
		c-12.5-0.3-24.4,4.9-32.9,14c-9.3,9.8-14.3,22.9-14,36.4c-0.3,13.4,4.8,26.3,14,36C1301,304.9,1313,310.2,1325.5,310z M1464.3,92.3
		v245.5h-36.7V92.3L1464.3,92.3z M1564.9,342.9c-22.2,0.6-43.6-8.1-59.1-24c-15.7-15.8-24.3-37.3-23.7-59.5
		c-0.8-22.3,7.4-44,22.9-60.1c14.6-15.4,35-23.9,56.2-23.5c9.6-0.1,19.2,1.8,28.1,5.5c8,3.2,15.3,8,21.5,14c5.3,5.1,10,10.8,14,17
		c3.3,5.2,6,10.7,8.3,16.4l3.8,9.5l-112.3,46.2c7,16,23,26,40.4,25.3c16.8,0,32.5-8.8,41.1-23.2l28.1,19
		c-7.2,10.3-16.3,18.9-27,25.6C1594.5,339,1579.8,343.1,1564.9,342.9L1564.9,342.9z M1518,256.8l74.7-31c-2.3-5.5-6.4-10-11.7-12.8
		c-5.9-3.3-12.5-5-19.2-4.9c-11.4,0.3-22.3,5.1-30.2,13.3C1522,230.6,1517,243.5,1518,256.8L1518,256.8z M1828.8,342.9
		c-63.9,1.1-116.6-49.8-117.7-113.7c0-1.6,0-3.1,0-4.7c-1.5-63.9,49.1-116.9,113-118.4c1.6,0,3.1,0,4.7,0c32-1,62.6,12.7,83.3,37.1
		l-20.2,19.7c-15.2-19.1-38.5-29.8-62.9-28.8c-23.4-0.5-45.9,8.5-62.5,25c-17.2,17.3-26.4,41-25.4,65.4c-1,24.4,8.2,48.1,25.4,65.4
		c16.6,16.5,39.1,25.5,62.5,25c27.2,0.3,53-11.8,70.2-32.9l20.2,20.2c-10.6,12.7-23.9,22.8-38.9,29.6
		C1864.3,339.4,1846.6,343.1,1828.8,342.9z M1973.7,337.8h-29.1V111h29.1V337.8z M2021.2,201.3c31.7-31.5,82.9-31.5,114.6,0
		c15,15.9,23.1,37.1,22.5,59c0.7,21.9-7.4,43.1-22.5,59c-31.7,31.5-82.9,31.5-114.6,0c-15-15.9-23.1-37.1-22.5-59
		C1998,238.4,2006.1,217.2,2021.2,201.3L2021.2,201.3z M2042.8,301c18.6,19.7,49.6,20.5,69.3,1.9c0.7-0.6,1.3-1.3,1.9-1.9
		c10.3-11,15.7-25.7,15-40.7c0.7-15-4.8-29.7-15-40.7c-18.6-19.7-49.6-20.5-69.3-1.9c-0.7,0.6-1.3,1.3-1.9,1.9
		c-10.3,11-15.7,25.7-15,40.7c-0.6,15,4.9,29.6,15.2,40.6L2042.8,301z M2319.3,337.8h-28.1v-21.5h-0.8c-5,8.2-12.1,14.8-20.5,19.4
		c-8.7,5.1-18.7,7.7-28.8,7.7c-16.6,1.1-32.9-5.4-44.1-17.7c-10.6-13.5-16-30.3-15-47.5v-95.5h29.1v90.2c0,28.9,12.8,43.4,38.3,43.4
		c11.5,0.4,22.5-4.9,29.5-14c7.5-9.5,11.6-21.4,11.4-33.6v-85.9h29.1V337.8z M2418,342.9c-20,0.1-38.9-8.6-52-23.7
		c-14.6-16.1-22.4-37.2-21.8-58.8c-0.6-21.7,7.2-42.8,21.8-58.8c13-15.1,32-23.8,52-23.7c11-0.2,22,2.4,31.7,7.6
		c8.6,4.3,15.9,10.9,21.1,19h1.3l-1.3-21.5V111h29.1v226.8h-28.1v-21.5h-1.3c-5.2,8.1-12.5,14.6-21.1,19
		C2439.8,340.4,2429,343,2418,342.9z M2422.8,316.3c13.3,0.2,26-5.3,35-15.2c9.9-11.2,14.9-25.9,14-40.9c0.9-14.9-4.2-29.6-14-40.9
		c-17.6-19.4-47.7-20.8-67.1-3.2c-1.1,1-2.2,2.1-3.2,3.2c-9.9,11.2-15,25.8-14,40.7c-0.9,14.9,4.1,29.6,14,40.7
		C2396.5,310.9,2409.4,316.5,2422.8,316.3z"/>
</g>
</svg>
