<?xml version="1.0" encoding="utf-8"?>
<!-- Generator: Adobe Illustrator 19.2.0, SVG Export Plug-In . SVG Version: 6.00 Build 0)  -->
<svg version="1.1" id="Capa_1" xmlns="http://www.w3.org/2000/svg" xmlns:xlink="http://www.w3.org/1999/xlink" x="0px" y="0px"
	 viewBox="0 0 4423.4 2103.3" style="enable-background:new 0 0 4423.4 2103.3;" xml:space="preserve">
<path d="M2011,642.4c0,27.5-16.8,47.9-45.5,47.9c-23.9,0-41.9-20.3-41.9-47.9c0-26.3,19.1-47.9,44.3-47.9
	C1994.3,594.5,2011,616.1,2011,642.4z M1944.8,2080.9V980.5h45.1v1100.3H1944.8z M3490,1296.9c0,554.8-308,806.9-645.1,806.9
	c-344.4,0-623.2-272.8-623.2-784c0-524.9,288.6-806.9,647.5-806.9C3220.9,512.9,3490,790.3,3490,1296.9z M2267.5,1308.3
	c0,420.6,203.9,747.4,579.6,747.4c378.4,0,595.4-336.8,595.4-752.2c0-385.2-173.9-736.7-570.7-736.7S2267.5,897.8,2267.5,1308.3
	L2267.5,1308.3z M3655.6,1961.6c75.7,50.4,206.3,99.1,318.6,99.1c213.2,0,402.8-149.1,402.8-368.7c0-203.7-126.3-310-340.7-401.3
	c-191.9-81.7-364.5-170.4-364.5-388.2c0-226.9,178.8-387.4,421.8-387.4c130.7,0,229.2,36.7,275.1,68.8l-18.2,39.6
	c-39-27.5-144.3-62.5-258.9-62.5c-256.8,0-368.7,194-368.7,336.9c0,197.3,152.9,263.3,350.1,357.3
	c229.2,112.3,350.7,211.3,350.7,426.8c0,231.5-165,419.5-458.5,419.5c-121.5,0-261.3-41.2-330.1-94L3655.6,1961.6L3655.6,1961.6z"/>
<path d="M1430.5,1117.7c3,318.4,279.3,424.3,282.4,425.7c-2.3,7.5-44.2,151-145.6,299.2c-87.7,128.2-178.7,255.8-322.1,258.5
	c-140.9,2.6-186.2-83.5-347.2-83.5c-161,0-211.3,80.9-344.7,86.1c-138.4,5.2-243.8-138.6-332.2-266.3
	C40.5,1576.2-97.6,1099.3,87.8,777.4c92.1-159.9,256.7-261.1,435.3-263.7c135.9-2.6,264.1,91.4,347.2,91.4
	c83,0,238.9-113.1,402.7-96.5c68.6,2.9,261.1,27.7,384.8,208.7C1647.9,723.6,1428.1,851.5,1430.5,1117.7 M1165.8,335.9
	C1239.3,247,1288.7,123.2,1275.2,0c-105.9,4.3-234,70.6-309.9,159.4c-68.1,78.7-127.7,204.7-111.6,325.4
	C971.7,494,1092.3,424.9,1165.8,335.9"/>
</svg>
