<?xml version="1.0" encoding="utf-8"?>
<!-- Generator: Adobe Illustrator 19.2.0, SVG Export Plug-In . SVG Version: 6.00 Build 0)  -->
<svg version="1.1" id="Capa_1" xmlns="http://www.w3.org/2000/svg" xmlns:xlink="http://www.w3.org/1999/xlink" x="0px" y="0px"
	 viewBox="0 0 1319.7 2345.5" style="enable-background:new 0 0 1319.7 2345.5;" xml:space="preserve">
<style type="text/css">
	.st0{fill:#3174B9;}
	.st1{fill:#CA3132;}
</style>
<g>
	<path class="st0" d="M443.9,1248.5c0,0-59.7,34.7,42.5,46.5c123.9,14.2,187.2,12.1,323.7-13.7c0,0,35.9,22.5,86.1,42
		C590.2,1454.4,203.5,1315.7,443.9,1248.5z M406.5,1077.4c0,0-67,49.6,35.4,60.2c132.4,13.7,236.9,14.8,417.8-20
		c0,0,25,25.4,64.3,39.2C553.9,1264.9,141.7,1165.2,406.5,1077.4z"/>
	<path class="st1" d="M721.8,787c75.5,86.9-19.8,165-19.8,165s191.5-98.8,103.6-222.7c-82.1-115.4-145.1-172.8,195.9-370.5
		C1001.4,358.8,466.2,492.4,721.8,787z"/>
	<path class="st0" d="M1126.6,1375.1c0,0,44.2,36.4-48.7,64.6c-176.6,53.5-735.3,69.6-890.5,2.1c-55.7-24.3,48.8-57.9,81.7-65
		c34.3-7.4,53.9-6.1,53.9-6.1c-62-43.7-401,85.8-172.1,122.9C775,1594.9,1288.5,1448.2,1126.6,1375.1L1126.6,1375.1z M472.6,900
		c0,0-284.1,67.5-100.6,92c77.5,10.4,231.9,8,375.9-4.1c117.6-9.9,235.7-31,235.7-31s-41.4,17.8-71.5,38.2
		c-288.6,75.9-846,40.6-685.5-37C362.3,892.5,472.6,900,472.6,900L472.6,900z M982.4,1184.9c293.3-152.4,157.7-298.9,63-279.1
		c-23.2,4.8-33.5,9-33.5,9s8.6-13.5,25.1-19.3c187.3-65.8,331.3,194.2-60.4,297.2C976.5,1192.6,981.1,1188.5,982.4,1184.9z"/>
	<path class="st1" d="M805.6,39.4c0,0,162.4,162.5-154.1,412.4c-253.8,200.5-57.9,314.8-0.1,445.4
		c-148.2-133.7-256.9-251.4-184-360.9C574.5,375.5,871.1,297.5,805.6,39.4L805.6,39.4z"/>
	<path class="st0" d="M501.5,1598c281.5,18,713.9-10,724.2-143.2c0,0-19.7,50.5-232.7,90.6c-240.3,45.2-536.8,40-712.5,11
		C280.5,1556.3,316.5,1586.1,501.5,1598z"/>
	<path class="st1" d="M1212.7,1836.9h-8.6v-4.8h23.1v4.8h-8.6v24h-6V1836.9z M1258.8,1838.1h-0.1l-8.5,22.8h-3.9l-8.5-22.8h-0.1
		v22.8h-5.7v-28.8h8.3l7.8,20.3l7.8-20.3h8.3v28.8h-5.5L1258.8,1838.1L1258.8,1838.1L1258.8,1838.1z M455.4,2107
		c-26.5,23-54.6,36-79.8,36c-35.9,0-55.4-21.6-55.4-56.1c0-37.4,20.9-64.7,104.3-64.7h30.9L455.4,2107L455.4,2107z M528.6,2189.7
		v-255.9c0-65.4-37.3-108.6-127.2-108.6c-52.5,0-98.5,13-135.8,29.5l10.8,45.3c29.5-10.8,67.5-20.8,104.9-20.8
		c51.8,0,74.1,20.8,74.1,64v32.4h-25.9c-125.8,0-182.6,48.8-182.6,122.2c0,63.2,37.4,99.2,107.9,99.2c45.3,0,79.1-18.7,110.7-46
		l5.7,38.8H528.6z M773.2,2189.7h-91.4l-110-358h79.8l68.3,220l15.2,66.1c34.4-95.6,58.9-192.7,71.1-286.1h77.6
		C863.1,1949.6,825.7,2079,773.2,2189.7z M1123.9,2107c-26.6,23-54.7,36-79.8,36c-35.9,0-55.4-21.6-55.4-56.1
		c0-37.4,20.9-64.7,104.3-64.7h30.9V2107z M1197.2,2189.7v-255.9c0-65.4-37.4-108.6-127.2-108.6c-52.5,0-98.5,13-135.9,29.5
		l10.8,45.3c29.5-10.8,67.6-20.8,105-20.8c51.7,0,74,20.8,74,64v32.4H1098c-125.8,0-182.6,48.8-182.6,122.2
		c0,63.2,37.3,99.2,107.8,99.2c45.3,0,79.1-18.7,110.7-46l5.8,38.8H1197.2z M166.5,2250.5c-20.9,30.5-54.7,54.7-91.6,68.3
		l-36.2-42.6c28.1-14.4,52.2-37.7,63.4-59.4c9.7-19.3,13.7-44.2,13.7-103.7v-408.7h77.9v403.1C193.8,2187,187.4,2219.2,166.5,2250.5
		z"/>
</g>
</svg>
