<?xml version="1.0" encoding="utf-8"?>
<!-- Generator: Adobe Illustrator 19.2.0, SVG Export Plug-In . SVG Version: 6.00 Build 0)  -->
<svg version="1.1" id="Layer_1" xmlns="http://www.w3.org/2000/svg" xmlns:xlink="http://www.w3.org/1999/xlink" x="0px" y="0px"
	 viewBox="0 0 442.4 403.8" style="enable-background:new 0 0 442.4 403.8;" xml:space="preserve">
<style type="text/css">
	.st0{fill:#699F63;}
	.st1{fill-rule:evenodd;clip-rule:evenodd;fill:#333333;}
	.st2{fill-rule:evenodd;clip-rule:evenodd;fill:#699F63;}
	.st3{clip-path:url(#XMLID_3_);}
	.st4{fill:none;}
	.st5{fill:url(#SVGID_1_);}
	.st6{fill:url(#SVGID_2_);}
	.st7{fill:url(#SVGID_3_);}
	.st8{fill:url(#SVGID_4_);}
	.st9{fill:url(#SVGID_5_);}
	.st10{fill:url(#SVGID_6_);}
</style>
<g>
	<path class="st0" d="M218.6,270.9c-1.5,0-2.9-0.4-4.2-1.1l-13.3-7.9c-2-1.1-1-1.5-0.4-1.7c2.7-0.9,3.2-1.1,6-2.7
		c0.3-0.2,0.7-0.1,1,0.1l10.2,6.1c0.4,0.2,0.9,0.2,1.2,0l39.9-23.1c0.4-0.2,0.6-0.6,0.6-1.1v-46.1c0-0.5-0.2-0.9-0.6-1.1l-39.9-23
		c-0.4-0.2-0.9-0.2-1.2,0l-39.9,23c-0.4,0.2-0.6,0.7-0.6,1.1v46.1c0,0.4,0.2,0.9,0.6,1.1l10.9,6.3c5.9,3,9.6-0.5,9.6-4v-45.5
		c0-0.6,0.5-1.2,1.2-1.2h5.1c0.6,0,1.2,0.5,1.2,1.2v45.5c0,7.9-4.3,12.5-11.8,12.5c-2.3,0-4.1,0-9.2-2.5l-10.5-6
		c-2.6-1.5-4.2-4.3-4.2-7.3v-46.1c0-3,1.6-5.8,4.2-7.3l39.9-23.1c2.5-1.4,5.9-1.4,8.4,0l39.9,23.1c2.6,1.5,4.2,4.3,4.2,7.3v46.1
		c0,3-1.6,5.8-4.2,7.3l-39.9,23.1C221.6,270.5,220.1,270.9,218.6,270.9z"/>
	<path class="st0" d="M231,239.2c-17.5,0-21.1-8-21.1-14.8c0-0.6,0.5-1.2,1.2-1.2h5.2c0.6,0,1.1,0.4,1.1,1c0.8,5.3,3.1,7.9,13.7,7.9
		c8.4,0,12-1.9,12-6.4c0-2.6-1-4.5-14.1-5.8c-10.9-1.1-17.7-3.5-17.7-12.2c0-8.1,6.8-12.9,18.2-12.9c12.8,0,19.1,4.4,19.9,14
		c0,0.3-0.1,0.6-0.3,0.9c-0.2,0.2-0.5,0.4-0.8,0.4H243c-0.5,0-1-0.4-1.1-0.9c-1.2-5.5-4.3-7.3-12.5-7.3c-9.2,0-10.3,3.2-10.3,5.6
		c0,2.9,1.3,3.8,13.7,5.4c12.3,1.6,18.1,3.9,18.1,12.5C250.9,234.2,243.6,239.2,231,239.2z"/>
</g>
<g>
	<path class="st0" d="M288.6,190.8c0,4.2-3.5,7.7-7.7,7.7c-4.2,0-7.7-3.4-7.7-7.7c0-4.4,3.6-7.7,7.7-7.7
		C285,183.1,288.6,186.5,288.6,190.8z M274.4,190.8c0,3.6,2.9,6.5,6.4,6.5c3.6,0,6.5-3,6.5-6.5c0-3.6-2.9-6.4-6.5-6.4
		C277.4,184.4,274.4,187.2,274.4,190.8z M278,186.5h3c1,0,3,0,3,2.3c0,1.6-1,1.9-1.6,2.1c1.2,0.1,1.3,0.9,1.4,2
		c0.1,0.7,0.2,1.9,0.4,2.3h-1.8c0-0.4-0.3-2.6-0.3-2.7c-0.1-0.5-0.3-0.7-0.9-0.7h-1.5v3.5H278V186.5z M279.6,190.3h1.3
		c1.1,0,1.3-0.8,1.3-1.2c0-1.2-0.8-1.2-1.3-1.2h-1.4V190.3z"/>
</g>
<path class="st1" d="M94.9,90.6c0-1.8-1-3.5-2.6-4.4L50,61.7c-0.7-0.4-1.5-0.6-2.3-0.7c-0.1,0-0.4,0-0.4,0c-0.8,0-1.6,0.3-2.3,0.7
	L2.6,86.1C1,87,0,88.7,0,90.6l0.1,65.6c0,0.9,0.5,1.8,1.3,2.2c0.8,0.5,1.8,0.5,2.5,0L29.1,144c1.6-0.9,2.6-2.6,2.6-4.4v-30.7
	c0-1.8,1-3.5,2.6-4.4l10.7-6.2c0.8-0.5,1.7-0.7,2.6-0.7c0.9,0,1.8,0.2,2.5,0.7l10.7,6.2c1.6,0.9,2.6,2.6,2.6,4.4v30.7
	c0,1.8,1,3.5,2.6,4.4L91,158.4c0.8,0.5,1.8,0.5,2.6,0c0.8-0.4,1.3-1.3,1.3-2.2L94.9,90.6z"/>
<path class="st1" d="M298.7,0.3c-0.8-0.4-1.8-0.4-2.5,0c-0.8,0.5-1.3,1.3-1.3,2.2v65c0,0.6-0.3,1.2-0.9,1.6c-0.6,0.3-1.2,0.3-1.8,0
	L281.6,63c-1.6-0.9-3.5-0.9-5.1,0l-42.4,24.5c-1.6,0.9-2.6,2.6-2.6,4.4v48.9c0,1.8,1,3.5,2.6,4.4l42.4,24.5c1.6,0.9,3.5,0.9,5.1,0
	l42.4-24.5c1.6-0.9,2.6-2.6,2.6-4.4V18.9c0-1.9-1-3.6-2.6-4.5L298.7,0.3z M294.8,124.7c0,0.5-0.2,0.9-0.6,1.1l-14.5,8.4
	c-0.4,0.2-0.9,0.2-1.3,0l-14.5-8.4c-0.4-0.2-0.6-0.7-0.6-1.1v-16.8c0-0.5,0.2-0.9,0.6-1.1l14.5-8.4c0.4-0.2,0.9-0.2,1.3,0l14.5,8.4
	c0.4,0.2,0.6,0.7,0.6,1.1V124.7z"/>
<g>
	<path class="st1" d="M439.8,107.5c1.6-0.9,2.5-2.6,2.5-4.4V91.2c0-1.8-1-3.5-2.5-4.4l-42.1-24.4c-1.6-0.9-3.5-0.9-5.1,0l-42.4,24.5
		c-1.6,0.9-2.6,2.6-2.6,4.4v48.9c0,1.8,1,3.5,2.6,4.4l42.1,24c1.6,0.9,3.5,0.9,5,0l25.5-14.2c0.8-0.4,1.3-1.3,1.3-2.2
		c0-0.9-0.5-1.8-1.3-2.2l-42.6-24.5c-0.8-0.5-1.3-1.3-1.3-2.2V108c0-0.9,0.5-1.8,1.3-2.2l13.3-7.6c0.8-0.5,1.8-0.5,2.6,0l13.3,7.6
		c0.8,0.5,1.3,1.3,1.3,2.2V120c0,0.9,0.5,1.8,1.3,2.2c0.8,0.5,1.8,0.5,2.6,0L439.8,107.5z"/>
	<path class="st2" d="M394.5,105.2c0.3-0.2,0.7-0.2,1,0l8.1,4.7c0.3,0.2,0.5,0.5,0.5,0.9v9.4c0,0.4-0.2,0.7-0.5,0.9l-8.1,4.7
		c-0.3,0.2-0.7,0.2-1,0l-8.1-4.7c-0.3-0.2-0.5-0.5-0.5-0.9v-9.4c0-0.4,0.2-0.7,0.5-0.9L394.5,105.2z"/>
</g>
<g>
	<defs>
		<path id="XMLID_143_" d="M165.8,62.6c-1.6-0.9-3.5-0.9-5.1,0l-42.1,24.3c-1.6,0.9-2.5,2.6-2.5,4.4V140c0,1.8,1,3.5,2.5,4.4
			l42.1,24.3c1.6,0.9,3.5,0.9,5.1,0l42.1-24.3c1.6-0.9,2.5-2.6,2.5-4.4V91.3c0-1.8-1-3.5-2.5-4.4L165.8,62.6z"/>
	</defs>
	<linearGradient id="XMLID_2_" gradientUnits="userSpaceOnUse" x1="180.3959" y1="80.6976" x2="142.331" y2="158.35">
		<stop  offset="0" style="stop-color:#41873F"/>
		<stop  offset="0.3288" style="stop-color:#418B3D"/>
		<stop  offset="0.6352" style="stop-color:#419637"/>
		<stop  offset="0.9319" style="stop-color:#3FA92D"/>
		<stop  offset="1" style="stop-color:#3FAE2A"/>
	</linearGradient>
	<use xlink:href="#XMLID_143_"  style="overflow:visible;fill-rule:evenodd;clip-rule:evenodd;fill:url(#XMLID_2_);"/>
	<clipPath id="XMLID_3_">
		<use xlink:href="#XMLID_143_"  style="overflow:visible;"/>
	</clipPath>
	<g class="st3">
		<path class="st4" d="M160.6,62.6l-42.1,24.3c-1.6,0.9-2.6,2.6-2.6,4.4V140c0,1.2,0.4,2.3,1.2,3.2l47.4-81.2
			C163.2,61.7,161.8,61.9,160.6,62.6z"/>
		<path class="st4" d="M164.7,169.2c0.4-0.1,0.8-0.3,1.2-0.5l42.3-24.3c1.6-0.9,2.8-2.6,2.8-4.4V91.3c0-1.3-0.8-2.6-1.7-3.5
			L164.7,169.2z"/>
		<linearGradient id="SVGID_1_" gradientUnits="userSpaceOnUse" x1="156.8518" y1="121.3365" x2="263.6591" y2="42.4216">
			<stop  offset="0.1376" style="stop-color:#41873F"/>
			<stop  offset="0.4032" style="stop-color:#54A044"/>
			<stop  offset="0.7136" style="stop-color:#66B848"/>
			<stop  offset="0.9081" style="stop-color:#6CC04A"/>
		</linearGradient>
		<path class="st5" d="M208,86.9l-42.3-24.3c-0.4-0.2-0.9-0.4-1.3-0.5L117,143.2c0.4,0.5,0.9,0.9,1.4,1.2l42.3,24.3
			c1.2,0.7,2.6,0.9,3.9,0.5l44.5-81.4C208.8,87.4,208.4,87.1,208,86.9z"/>
	</g>
	<g class="st3">
		<path class="st4" d="M211,140V91.3c0-1.8-1.3-3.5-2.8-4.4l-42.3-24.3c-0.5-0.3-1-0.5-1.6-0.6l46.5,79.1
			C210.8,140.8,211,140.4,211,140z"/>
		<path class="st4" d="M118.6,86.9c-1.6,0.9-2.6,2.6-2.6,4.4V140c0,1.8,1,3.5,2.6,4.4l42.2,24.3c1,0.6,2.1,0.8,3.2,0.6l-45.3-82.6
			L118.6,86.9z"/>
		<linearGradient id="SVGID_2_" gradientUnits="userSpaceOnUse" x1="114.5565" y1="53.8174" x2="211.9735" y2="53.8174">
			<stop  offset="9.191646e-02" style="stop-color:#6CC04A"/>
			<stop  offset="0.2864" style="stop-color:#66B848"/>
			<stop  offset="0.5968" style="stop-color:#54A044"/>
			<stop  offset="0.8624" style="stop-color:#41873F"/>
		</linearGradient>
		<polygon class="st6" points="159.3,53.7 158.7,54 159.5,54 		"/>
		<linearGradient id="SVGID_3_" gradientUnits="userSpaceOnUse" x1="114.5565" y1="115.6346" x2="211.9735" y2="115.6346">
			<stop  offset="9.191646e-02" style="stop-color:#6CC04A"/>
			<stop  offset="0.2864" style="stop-color:#66B848"/>
			<stop  offset="0.5968" style="stop-color:#54A044"/>
			<stop  offset="0.8624" style="stop-color:#41873F"/>
		</linearGradient>
		<path class="st7" d="M208,144.4c1.2-0.7,2.1-1.9,2.5-3.2L164.2,62c-1.2-0.2-2.5-0.1-3.6,0.6l-42,24.2l45.3,82.6
			c0.6-0.1,1.3-0.3,1.9-0.6L208,144.4z"/>
		<linearGradient id="SVGID_4_" gradientUnits="userSpaceOnUse" x1="114.5565" y1="143.4452" x2="211.9735" y2="143.4452">
			<stop  offset="9.191646e-02" style="stop-color:#6CC04A"/>
			<stop  offset="0.2864" style="stop-color:#66B848"/>
			<stop  offset="0.5968" style="stop-color:#54A044"/>
			<stop  offset="0.8624" style="stop-color:#41873F"/>
		</linearGradient>
		<polygon class="st8" points="212,143.6 211.7,143.1 211.7,143.8 		"/>
		<linearGradient id="SVGID_5_" gradientUnits="userSpaceOnUse" x1="114.2393" y1="156.0148" x2="212.2811" y2="156.0148">
			<stop  offset="9.191646e-02" style="stop-color:#6CC04A"/>
			<stop  offset="0.2864" style="stop-color:#66B848"/>
			<stop  offset="0.5968" style="stop-color:#54A044"/>
			<stop  offset="0.8624" style="stop-color:#41873F"/>
		</linearGradient>
		<path class="st9" d="M208,144.4l-42.2,24.3c-0.6,0.3-1.2,0.5-1.9,0.6l1,1.5l47-27.1v-0.6l-1.3-2
			C210.3,142.5,209.3,143.7,208,144.4z"/>
		<linearGradient id="SVGID_6_" gradientUnits="userSpaceOnUse" x1="226.3189" y1="78.3954" x2="166.2383" y2="200.9598">
			<stop  offset="0" style="stop-color:#41873F"/>
			<stop  offset="0.3288" style="stop-color:#418B3D"/>
			<stop  offset="0.6352" style="stop-color:#419637"/>
			<stop  offset="0.9319" style="stop-color:#3FA92D"/>
			<stop  offset="1" style="stop-color:#3FAE2A"/>
		</linearGradient>
		<path class="st10" d="M208,144.4l-42.2,24.3c-0.6,0.3-1.2,0.5-1.9,0.6l1,1.5l47-27.1v-0.6l-1.3-2
			C210.3,142.5,209.3,143.7,208,144.4z"/>
	</g>
</g>
<g>
	<path d="M8.8,356.4c1.1,4.2,2.8,7.9,5.1,11c2.3,3.1,5.2,5.6,8.8,7.4c3.6,1.8,8,2.7,13.2,2.7c7.7,0,14.1-2,19.2-6.1
		c5.1-4,8.2-10.1,9.5-18.2h2.8c-1,8.5-4.4,15.2-10.1,19.9s-12.7,7-21.1,7c-5.7,0.1-10.6-0.8-14.6-2.7c-4-1.9-7.3-4.6-9.9-8
		c-2.6-3.5-4.5-7.5-5.7-12.2c-1.2-4.7-1.9-9.8-1.9-15.2c0-6.1,0.9-11.5,2.7-16.2c1.8-4.7,4.2-8.8,7.1-12c2.9-3.3,6.4-5.8,10.3-7.5
		c3.9-1.7,7.9-2.6,12-2.6c5.7,0,10.6,1.1,14.7,3.3c4.1,2.2,7.5,5.1,10.1,8.7c2.6,3.6,4.5,7.7,5.7,12.4c1.2,4.7,1.7,9.5,1.5,14.5H7
		C7.1,347.6,7.7,352.2,8.8,356.4z M63.5,327.1c-1.2-4-3.1-7.6-5.5-10.6c-2.4-3-5.4-5.4-9-7.2c-3.6-1.8-7.8-2.6-12.5-2.6
		c-4,0-7.7,0.8-11.2,2.3c-3.5,1.5-6.5,3.7-9.1,6.6c-2.6,2.9-4.7,6.4-6.3,10.5c-1.6,4.1-2.6,8.7-2.8,13.8h58.4
		C65.4,335.4,64.8,331.1,63.5,327.1z"/>
	<path d="M129.3,305.5l-26.8,35.3l29.3,37.9h-3.6L100.7,343l-27.5,35.7h-3.4L99,340.8l-26.6-35.3h3.7l24.6,33.2l25.2-33.2H129.3z"/>
	<path d="M137.6,403.8v-98.3h2.8V326h0.3c0.9-3.2,2.3-6.2,4.1-8.9c1.8-2.7,3.9-5.1,6.4-7c2.5-2,5.3-3.5,8.5-4.6
		c3.2-1.1,6.6-1.6,10.3-1.6c4.8,0,9.2,1,13,2.8c3.8,1.9,7.1,4.6,9.8,8s4.8,7.5,6.2,12.1c1.4,4.7,2.1,9.7,2.1,15.2
		c0,5.1-0.7,10-2.1,14.7c-1.4,4.7-3.4,8.7-6,12.2c-2.6,3.5-5.9,6.3-9.8,8.3c-3.9,2-8.4,3.1-13.4,3.1c-7.8,0-14.2-2-19.2-6.1
		c-5-4-8.4-9.4-10.1-16h-0.3v45.6H137.6z M182.9,374.4c3.6-2.1,6.5-4.9,8.8-8.3c2.3-3.4,4-7.2,5.1-11.4c1.1-4.2,1.6-8.5,1.6-12.7
		c0-4.7-0.6-9.2-1.8-13.5c-1.2-4.2-2.9-8-5.3-11.2c-2.3-3.3-5.3-5.9-8.8-7.8c-3.6-1.9-7.7-2.8-12.5-2.8c-4.7,0-8.8,1-12.5,2.8
		c-3.7,1.9-6.8,4.5-9.3,7.7c-2.5,3.2-4.4,7-5.8,11.2c-1.3,4.3-2,8.8-2,13.5c0,11.5,2.7,20.3,8.1,26.4c5.4,6.1,12.6,9.2,21.5,9.2
		C175.1,377.6,179.4,376.5,182.9,374.4z"/>
	<path d="M214.1,378.7v-73.2h2.8v18.1h0.3c0.7-2.8,1.7-5.3,3.1-7.8c1.4-2.4,3.3-4.5,5.7-6.3c2.4-1.8,5.2-3.2,8.5-4.3
		c3.3-1,7.1-1.5,11.5-1.4v2.8c-5-0.3-9.4,0.4-13,2.1c-3.7,1.7-6.7,3.9-9,6.8c-2.4,2.9-4.1,6.2-5.3,10c-1.1,3.8-1.7,7.7-1.7,11.7
		v41.4H214.1z"/>
	<path d="M251.3,356.4c1.1,4.2,2.8,7.9,5.1,11s5.2,5.6,8.8,7.4c3.6,1.8,8,2.7,13.2,2.7c7.7,0,14.1-2,19.2-6.1
		c5.1-4,8.2-10.1,9.5-18.2h2.8c-1,8.5-4.4,15.2-10.1,19.9c-5.7,4.7-12.7,7-21.1,7c-5.7,0.1-10.6-0.8-14.6-2.7c-4-1.9-7.3-4.6-9.9-8
		c-2.6-3.5-4.5-7.5-5.7-12.2c-1.2-4.7-1.9-9.8-1.9-15.2c0-6.1,0.9-11.5,2.7-16.2c1.8-4.7,4.2-8.8,7.1-12c2.9-3.3,6.4-5.8,10.3-7.5
		c3.9-1.7,7.9-2.6,12-2.6c5.7,0,10.6,1.1,14.7,3.3c4.1,2.2,7.5,5.1,10.1,8.7c2.6,3.6,4.5,7.7,5.7,12.4c1.2,4.7,1.7,9.5,1.5,14.5
		h-61.2C249.6,347.6,250.2,352.2,251.3,356.4z M306.1,327.1c-1.2-4-3.1-7.6-5.5-10.6c-2.4-3-5.4-5.4-9-7.2
		c-3.6-1.8-7.8-2.6-12.5-2.6c-4,0-7.7,0.8-11.2,2.3c-3.5,1.5-6.5,3.7-9.1,6.6c-2.6,2.9-4.7,6.4-6.3,10.5c-1.6,4.1-2.6,8.7-2.8,13.8
		h58.4C307.9,335.4,307.3,331.1,306.1,327.1z"/>
	<path d="M368.1,317.8c-1.1-2.6-2.8-4.7-4.8-6.3c-2.1-1.7-4.6-2.9-7.5-3.6c-2.9-0.8-6.1-1.1-9.6-1.1c-5.1,0-9.2,0.7-12.1,2.1
		c-2.9,1.4-5.1,2.9-6.6,4.7c-1.4,1.8-2.3,3.5-2.7,5.2c-0.4,1.7-0.6,2.9-0.6,3.6c0,3.6,0.7,6.4,2.2,8.3c1.5,1.9,3.4,3.4,5.9,4.5
		c2.6,1,5.3,1.9,8.3,2.7c3,0.8,6.5,1.7,10.5,2.7c2.8,0.8,5.7,1.5,8.5,2.3c2.8,0.8,5.3,1.9,7.5,3.3c2.2,1.4,4,3.2,5.4,5.4
		c1.4,2.2,2.1,5,2.1,8.5c0,3.7-0.8,6.8-2.3,9.4c-1.6,2.6-3.6,4.7-6.1,6.3c-2.5,1.6-5.4,2.8-8.5,3.5c-3.2,0.7-6.3,1.1-9.5,1.1
		c-9.8,0-17.2-2.1-22.1-6.4s-7.5-11-7.5-20.2h2.8c0,8.3,2.3,14.3,6.9,18.2c4.6,3.8,11.2,5.8,19.9,5.8c2.7,0,5.4-0.3,8.2-0.9
		c2.8-0.6,5.3-1.6,7.6-3c2.3-1.4,4.2-3.2,5.6-5.3c1.5-2.2,2.2-4.8,2.2-8c0-3.2-0.7-5.8-2.2-7.8c-1.5-2-3.4-3.6-5.7-4.9
		c-2.3-1.3-5-2.3-8-3.1c-3-0.8-6.1-1.5-9.3-2.3c-3.5-0.9-6.6-1.7-9.3-2.4c-2.7-0.8-5-1.6-7.1-2.6c-3-1.3-5.3-3.2-6.7-5.6
		c-1.4-2.4-2.1-5.6-2.1-9.5c0-2,0.4-4.1,1.3-6.3c0.9-2.2,2.3-4.2,4.3-6c2-1.8,4.6-3.3,7.7-4.4c3.1-1.1,7-1.7,11.5-1.7
		c8.2,0,14.6,1.9,19.4,5.6c4.7,3.7,7.1,9.6,7.1,17.8h-2.8C369.8,323.5,369.3,320.3,368.1,317.8z"/>
	<path d="M434.1,317.8c-1.1-2.6-2.8-4.7-4.8-6.3c-2.1-1.7-4.6-2.9-7.5-3.6c-2.9-0.8-6.1-1.1-9.6-1.1c-5.1,0-9.2,0.7-12.1,2.1
		c-2.9,1.4-5.1,2.9-6.6,4.7c-1.4,1.8-2.3,3.5-2.7,5.2c-0.4,1.7-0.6,2.9-0.6,3.6c0,3.6,0.7,6.4,2.2,8.3c1.5,1.9,3.4,3.4,5.9,4.5
		c2.6,1,5.3,1.9,8.3,2.7c3,0.8,6.5,1.7,10.5,2.7c2.8,0.8,5.7,1.5,8.5,2.3c2.8,0.8,5.3,1.9,7.5,3.3c2.2,1.4,4,3.2,5.4,5.4
		c1.4,2.2,2.1,5,2.1,8.5c0,3.7-0.8,6.8-2.3,9.4c-1.6,2.6-3.6,4.7-6.1,6.3c-2.5,1.6-5.4,2.8-8.5,3.5c-3.2,0.7-6.3,1.1-9.5,1.1
		c-9.8,0-17.2-2.1-22.1-6.4s-7.5-11-7.5-20.2h2.8c0,8.3,2.3,14.3,6.9,18.2c4.6,3.8,11.2,5.8,19.9,5.8c2.7,0,5.4-0.3,8.2-0.9
		c2.8-0.6,5.3-1.6,7.6-3c2.3-1.4,4.2-3.2,5.6-5.3c1.5-2.2,2.2-4.8,2.2-8c0-3.2-0.7-5.8-2.2-7.8c-1.5-2-3.4-3.6-5.7-4.9
		c-2.3-1.3-5-2.3-8-3.1c-3-0.8-6.1-1.5-9.3-2.3c-3.5-0.9-6.6-1.7-9.3-2.4c-2.7-0.8-5-1.6-7.1-2.6c-3-1.3-5.3-3.2-6.7-5.6
		c-1.4-2.4-2.1-5.6-2.1-9.5c0-2,0.4-4.1,1.3-6.3c0.9-2.2,2.3-4.2,4.3-6c2-1.8,4.6-3.3,7.7-4.4c3.1-1.1,7-1.7,11.5-1.7
		c8.2,0,14.6,1.9,19.4,5.6c4.7,3.7,7.1,9.6,7.1,17.8h-2.8C435.8,323.5,435.2,320.3,434.1,317.8z"/>
</g>
</svg>
