<?xml version="1.0" encoding="utf-8"?>
<!-- Generator: Adobe Illustrator 19.2.0, SVG Export Plug-In . SVG Version: 6.00 Build 0)  -->
<svg version="1.1" id="Capa_1" xmlns="http://www.w3.org/2000/svg" xmlns:xlink="http://www.w3.org/1999/xlink" x="0px" y="0px"
	 viewBox="0 0 98 80.3" style="enable-background:new 0 0 98 80.3;" xml:space="preserve">
<style type="text/css">
	.st0{fill:#231F20;}
	.st1{fill:#367FAF;}
	.st2{fill:#231F20;stroke:#231F20;stroke-width:5.046;stroke-linecap:round;stroke-linejoin:round;}
	.st3{fill:#417BA2;}
	.st4{fill:none;stroke:#FFFFFF;stroke-width:1.682;stroke-linecap:round;stroke-linejoin:round;}
	.st5{fill:#FFFFFF;stroke:#FFFFFF;stroke-width:0.561;stroke-linecap:round;stroke-linejoin:round;}
	.st6{fill:#FFFFFF;stroke:#FFFFFF;stroke-width:0.28;stroke-linecap:round;stroke-linejoin:round;}
</style>
<g>
	<g>
		<path class="st0" d="M6.5,71.4H1.8v-4.3h4.9c1.8,0,2.7,0.7,2.7,2.2C9.5,70.7,8.5,71.4,6.5,71.4 M9.9,67.1
			c-0.6-0.5-1.5-0.8-2.7-0.8l-6.7,0v10.2h1.3l0-4.3h5c1.2,0,2.2-0.3,2.9-0.8s1.1-1.2,1.1-2.2S10.5,67.6,9.9,67.1L9.9,67.1z
			 M18.6,74.4c-0.1,0.3-0.4,0.6-0.6,0.9c-0.6,0.5-1.5,0.8-2.8,0.8c-1.1,0-2-0.3-2.6-0.8s-0.9-1.2-0.9-2.1c0-0.5,0.1-0.9,0.2-1.2
			c0.2-0.3,0.4-0.7,0.7-0.9c0.6-0.5,1.5-0.8,2.6-0.8c2.4,0,3.6,1,3.6,2.9C18.8,73.7,18.7,74.1,18.6,74.4 M18.8,70.6
			c-0.8-0.7-2-1-3.6-1c-1.5,0-2.7,0.3-3.5,1c-0.7,0.6-1.1,1.5-1.1,2.5s0.4,1.9,1.2,2.6c0.4,0.4,0.9,0.6,1.5,0.8
			c0.6,0.2,1.2,0.2,2,0.2c1.6,0,2.8-0.3,3.7-1c0.7-0.6,1.1-1.5,1.1-2.6C20,72.1,19.6,71.2,18.8,70.6L18.8,70.6z M29,74.7
			c0,1.4-1.4,2.1-4.1,2.1c-0.8,0-1.5,0-2.1-0.1s-1-0.3-1.4-0.5c-0.3-0.2-0.5-0.4-0.6-0.7c-0.2-0.3-0.3-0.7-0.3-1l1.3,0
			c0,0.5,0.2,0.9,0.7,1.2c0.5,0.3,1.3,0.5,2.5,0.5c1.9,0,2.8-0.4,2.8-1.3c0-0.5-0.3-0.8-1-1c-0.1,0-0.9-0.1-2.3-0.3L21.9,73
			c-0.7-0.3-1.1-0.8-1.1-1.5c0-0.7,0.3-1.2,1-1.5c0.3-0.1,0.7-0.2,1.2-0.3s1.1-0.1,1.7-0.1c2.6,0,3.9,0.7,3.9,2.2h-1.2
			c0-1-0.9-1.6-2.8-1.6c-0.9,0-1.6,0.1-2.1,0.3s-0.7,0.5-0.7,1c0,0.4,0.3,0.7,0.9,0.9c0.4,0.1,1.2,0.2,2.5,0.3
			c1.2,0.1,2,0.2,2.4,0.4C28.6,73.5,29,74,29,74.7L29,74.7z M34,76.6l-0.5,0.1l-0.3,0c-0.8,0-1.4-0.1-1.8-0.3s-0.5-0.6-0.5-1.1v-4.7
			h-1.5v-0.7h1.5l0-2.2H32v2.2h2v0.7l-2,0v4.5c0,0.3,0.1,0.6,0.3,0.7c0.2,0.1,0.6,0.2,1.1,0.2c0.1,0,0.2,0,0.2,0s0.2,0,0.4-0.1
			L34,76.6L34,76.6z M41.9,75c-0.3,0.2-0.7,0.4-1.1,0.5c-0.4,0.1-0.9,0.2-1.4,0.2c-2.4,0-3.6-0.9-3.6-2.7c0-0.8,0.3-1.5,0.9-2
			s1.5-0.7,2.6-0.7c1.1,0,2,0.2,2.6,0.7s0.9,1.1,0.9,1.9C42.8,73.9,42.5,74.5,41.9,75 M44,69.9h-1.1l0,1.2c-0.5-0.5-0.9-0.8-1.1-0.9
			c-0.6-0.3-1.5-0.5-2.5-0.5c-1.5,0-2.6,0.3-3.4,0.9C35,71.1,34.7,72,34.7,73c0,0.5,0.1,1,0.3,1.4c0.2,0.4,0.5,0.8,0.8,1.1
			c0.8,0.6,1.9,0.9,3.3,0.9c1.7,0,3-0.4,3.7-1.3v1.2c0,0.8-0.3,1.3-0.8,1.8s-1.4,0.6-2.6,0.6c-1.1,0-1.9-0.1-2.4-0.4
			c-0.4-0.2-0.6-0.6-0.7-1.1h-1.2c0.1,0.8,0.5,1.3,1,1.6c0.7,0.4,1.8,0.6,3.3,0.6c3,0,4.5-1,4.5-3L44,69.9L44,69.9z M50.2,70.5
			c-0.3,0-0.6-0.1-1-0.1c-1.9,0-2.8,0.9-2.8,2.8v3.3h-1.1l0-6.7l1.2,0v1.2h0.1c0.2-0.4,0.5-0.8,0.9-1.1c0.5-0.2,1.1-0.4,2-0.4h0.8
			L50.2,70.5L50.2,70.5z M51.2,72.8c0.1-0.8,0.5-1.3,1-1.8c0.3-0.2,0.7-0.4,1.1-0.5s0.9-0.2,1.4-0.2c1,0,1.9,0.3,2.5,0.8
			s1,1.1,1,1.7L51.2,72.8 M58.3,70.7c-0.4-0.4-0.9-0.6-1.5-0.8s-1.3-0.3-2.1-0.3c-1.5,0-2.6,0.3-3.5,0.9S50,72.1,50,73.1
			s0.4,1.9,1.2,2.6c0.9,0.7,2.1,1.1,3.6,1.1c0.6,0,1.2-0.1,1.7-0.2s1-0.3,1.4-0.5c0.7-0.4,1.1-1,1.3-1.7H58
			c-0.4,1.1-1.5,1.7-3.2,1.7c-1.2,0-2.1-0.3-2.8-0.8c-0.6-0.5-0.8-1.1-0.8-1.9h8.2C59.4,72.2,59.1,71.3,58.3,70.7L58.3,70.7z"/>
		<path class="st1" d="M71.6,73.8c0,2-1.8,3-5.3,3c-2.1,0-3.7-0.3-4.6-1c-0.8-0.6-1.2-1.4-1.2-2.6h1.4c0,1.9,1.5,2.8,4.4,2.8
			c1.4,0,2.4-0.2,3.1-0.6c0.5-0.3,0.8-0.9,0.8-1.6c0-0.7-0.4-1.2-1.1-1.5c-0.4-0.2-1.4-0.3-3-0.6c-2-0.3-3.3-0.6-3.9-0.8
			c-0.9-0.4-1.3-1.1-1.3-2.1c0-0.9,0.4-1.6,1.1-2c0.8-0.5,2.1-0.7,4.1-0.7c3.5,0,5.2,1,5.2,3.1h-1.4c0-1.6-1.3-2.3-3.9-2.3
			c-1.3,0-2.2,0.2-2.8,0.5c-0.6,0.3-0.8,0.8-0.8,1.5c0,0.7,0.4,1.2,1.1,1.4c0.4,0.2,1.5,0.4,3.4,0.7c1.8,0.2,3,0.5,3.6,0.8
			C71.1,72.2,71.6,72.8,71.6,73.8L71.6,73.8z M83.1,74.8c-0.5,0.4-1.2,0.7-1.8,0.9c-0.7,0.2-1.4,0.3-2.2,0.3c-1.7,0-3.1-0.4-4.1-1.2
			s-1.6-1.9-1.6-3.3c0-1.4,0.5-2.6,1.6-3.4s2.4-1.2,4.1-1.2c1.7,0,3.1,0.4,4.1,1.3c0.5,0.4,0.9,0.9,1.2,1.4c0.3,0.5,0.4,1.2,0.4,1.9
			C84.7,72.9,84.2,74,83.1,74.8 M83.9,75.5c0.7-0.5,1.3-1,1.6-1.7s0.5-1.5,0.5-2.3c0-1.6-0.6-2.8-1.7-3.8c-0.6-0.5-1.4-0.9-2.2-1.2
			s-1.9-0.4-3-0.4c-2.2,0-3.9,0.5-5.2,1.4S72,69.8,72,71.4c0,1.5,0.7,3,1.9,3.9c1.3,1,3,1.5,5.2,1.5c0.7,0,1.5,0,2.2-0.2
			c0.6-0.1,1.2-0.3,1.6-0.5l2.1,1.3l0.9-0.7L83.9,75.5L83.9,75.5z M96.7,76.5H87V66.3l1.3,0v9.4h8.4L96.7,76.5z"/>
	</g>
	<path class="st2" d="M62.8,42.2c0.4-3.2,0.3-3.7,2.6-3.1l0.6,0.1c1.8,0.1,4.2-0.3,5.6-0.9c3-1.4,4.8-3.7,1.8-3.1
		c-6.8,1.4-7.3-0.9-7.3-0.9C73.4,23.5,76.4,10,73.9,6.7c-7.1-9-19.3-4.8-19.5-4.6l-0.1,0c-1.3-0.3-2.8-0.4-4.5-0.5
		c-3.1-0.1-5.4,0.8-7.2,2.1c0,0-21.8-9-20.8,11.3c0.2,4.3,6.2,32.6,13.3,24.1c2.6-3.1,5.1-5.8,5.1-5.8c1.2,0.8,2.7,1.2,4.3,1.1
		l0.1-0.1c0,0.4,0,0.8,0,1.2c-1.8,2-1.3,2.4-5,3.2c-3.7,0.8-1.5,2.1-0.1,2.5c1.7,0.4,5.7,1,8.4-2.7L48,38.8c0.7,0.6,0.7,4.1,0.8,6.7
		s0.3,4.9,0.8,6.3s1.1,5,5.9,4C59.5,54.9,62.6,53.7,62.8,42.2"/>
	<path class="st3" d="M73.5,35c-6.8,1.4-7.3-0.9-7.3-0.9C73.4,23.5,76.4,10,73.9,6.7c-7.1-9-19.3-4.8-19.5-4.6l-0.1,0
		c-1.3-0.3-2.8-0.4-4.5-0.5c-3.1-0.1-5.4,0.8-7.2,2.1c0,0-21.8-9-20.8,11.3c0.2,4.3,6.2,32.6,13.3,24.1c2.6-3.1,5.1-5.8,5.1-5.8
		c1.2,0.8,2.7,1.2,4.3,1.1l0.1-0.1c0,0.4,0,0.8,0,1.2c-1.8,2-1.3,2.4-5,3.2c-3.7,0.8-1.5,2.1-0.1,2.5c1.7,0.4,5.7,1,8.4-2.7L48,38.8
		c0.7,0.6,1.2,3.7,1.1,6.6s-0.1,4.8,0.4,6.4s1.1,5,5.9,4c4-0.9,6.1-3.1,6.4-6.8c0.2-2.7,0.7-2.3,0.7-4.6l0.4-1.1
		c0.4-3.6,0.1-4.8,2.5-4.2l0.6,0.1c1.8,0.1,4.2-0.3,5.6-0.9C74.7,36.7,76.5,34.4,73.5,35L73.5,35z"/>
	<g>
		<path class="st4" d="M48.4,37.1c-0.2,6.7,0,13.4,0.7,15s2.1,4.8,6.9,3.8c4-0.9,5.5-2.5,6.1-6.2c0.5-2.7,1.4-10.2,1.5-11.8
			 M42.6,3.6c0,0-21.8-8.9-20.8,11.4C22,19.2,28,47.5,35.1,39c2.6-3.1,5-5.6,5-5.6 M54.4,1.9c-0.8,0.2,12.1-4.7,19.4,4.6
			c2.6,3.3-0.4,16.8-7.6,27.4 M66.2,34c0,0,0.5,2.3,7.3,0.9c3-0.6,1.2,1.7-1.8,3.1c-2.5,1.2-8,1.4-8.1-0.1
			C63.3,33.8,66.5,35,66.2,34c-0.2-0.9-1.6-1.8-2.6-4.1c-0.8-2-11.2-17.1,2.9-14.9c0.5-0.1-3.7-13.4-16.8-13.6S37,17.6,37,17.6
			 M44.7,35.4c-1.8,2-1.3,2.4-5,3.2c-3.7,0.8-1.5,2.1-0.1,2.5c1.7,0.4,5.7,1,8.4-2.7c0.8-1.1,0-3-1.1-3.4
			C46.4,34.7,45.6,34.4,44.7,35.4z M44.6,35.4c-0.2-1.2,0.4-2.6,1-4.3c0.9-2.5,3.1-5,1.4-13c-1.3-5.9-9.9-1.2-9.9-0.4
			s0.4,4.1-0.1,7.9c-0.7,5,3.2,9.2,7.6,8.8"/>
		<g>
			<path class="st5" d="M42.5,17.5c0,0.3,0.5,1,1.2,1.1s1.3-0.5,1.3-0.8s-0.5-0.6-1.2-0.7S42.6,17.2,42.5,17.5L42.5,17.5z"/>
			<path class="st6" d="M64,17c0,0.3-0.5,1-1.2,1.1s-1.3-0.5-1.3-0.8s0.5-0.6,1.2-0.7C63.4,16.5,64,16.7,64,17L64,17z"/>
		</g>
		<path class="st4" d="M66.6,15.1c0.1,2.2-0.5,3.6-0.5,5.9c-0.1,3.3,1.6,7.2-1,11"/>
	</g>
</g>
</svg>
