<?xml version="1.0" encoding="utf-8"?>
<!-- Generator: Adobe Illustrator 19.2.0, SVG Export Plug-In . SVG Version: 6.00 Build 0)  -->
<svg version="1.1" id="Layer_1" xmlns="http://www.w3.org/2000/svg" xmlns:xlink="http://www.w3.org/1999/xlink" x="0px" y="0px"
	 viewBox="0 0 365 85.8" style="enable-background:new 0 0 365 85.8;" xml:space="preserve">
<g>
	<path d="M5.5,70.2L5.5,70.2c-3,0-5.5-2.4-5.5-5.5V50.3c0-3,2.4-5.5,5.5-5.5l0,0c3,0,5.5,2.4,5.5,5.5v14.4
		C10.9,67.7,8.5,70.2,5.5,70.2z M27.1,69.7v-25c0-3-2.4-5.5-5.5-5.5l0,0c-3,0-5.5,2.4-5.5,5.5v25c0,3,2.4,5.5,5.5,5.5l0,0
		C24.6,75.1,27.1,72.7,27.1,69.7z M43.2,75.2V39.5c0-3-2.4-5.5-5.5-5.5l0,0c-3,0-5.5,2.4-5.5,5.5v35.7c0,3,2.4,5.5,5.5,5.5l0,0
		C40.8,80.7,43.2,78.2,43.2,75.2z M59.4,80.3V33.8c0-3-2.4-5.5-5.5-5.5l0,0c-3,0-5.5,2.4-5.5,5.5v46.5c0,3,2.4,5.5,5.5,5.5l0,0
		C56.9,85.8,59.4,83.3,59.4,80.3z M83.3,21.5L10.4,0.2C9.9,0.1,9.3,0,8.8,0C5.7,0,3,2.5,3,5.8v34.4h4.3V5.8c0-0.9,0.7-1.4,1.4-1.4
		c0.1,0,0.3,0,0.4,0.1l72.9,21.3c0.6,0.2,1,0.7,1,1.4V73c0,0.9-0.7,1.4-1.4,1.4c-0.1,0-0.3,0-0.4-0.1l-16.6-4.9V74l15.4,4.5
		c0.5,0.2,1.1,0.2,1.6,0.2c3.1,0,5.8-2.5,5.8-5.8V27.1C87.5,24.5,85.8,22.2,83.3,21.5z M129.8,20.7c2.9-0.5,6.6-0.9,11.4-0.9
		c5.9,0,10.2,1.4,12.9,3.8c2.5,2.2,4,5.5,4,9.6c0,4.2-1.2,7.4-3.6,9.8c-3.1,3.3-8.3,5.1-14.1,5.1c-1.8,0-3.4-0.1-4.8-0.4v18.4h-5.9
		V20.7z M135.7,42.9c1.3,0.3,2.9,0.5,4.9,0.5c7.2,0,11.5-3.5,11.5-9.8c0-6.1-4.3-9-10.9-9c-2.6,0-4.6,0.2-5.6,0.5V42.9z M194.1,49.4
		c0,12.2-8.5,17.6-16.5,17.6c-8.9,0-15.8-6.6-15.8-17c0-11.1,7.2-17.6,16.4-17.6C187.7,32.4,194.1,39.3,194.1,49.4z M167.9,49.7
		c0,7.2,4.2,12.7,10,12.7c5.7,0,10-5.4,10-12.8c0-5.6-2.8-12.7-9.9-12.7C171,36.9,167.9,43.5,167.9,49.7z M203.6,33.1L208,50
		c1,3.7,1.8,7.1,2.5,10.5h0.2c0.8-3.3,1.8-6.9,2.9-10.4l5.4-16.9h5.1l5.1,16.5c1.2,4,2.2,7.4,2.9,10.8h0.2c0.5-3.3,1.4-6.8,2.5-10.7
		l4.7-16.6h5.9l-10.7,33.1h-5.5l-5.1-15.8c-1.2-3.7-2.1-7-2.9-10.9h-0.1c-0.8,4-1.8,7.4-3,10.9l-5.3,15.7h-5.5l-10-33.1H203.6z
		 M254.2,50.8c0.1,8.1,5.3,11.5,11.3,11.5c4.3,0,6.9-0.8,9.2-1.7l1,4.3c-2.1,1-5.7,2-11,2c-10.2,0-16.3-6.7-16.3-16.7
		s5.9-17.8,15.5-17.8c10.8,0,13.7,9.5,13.7,15.6c0,1.2-0.1,2.2-0.2,2.8H254.2z M271.8,46.5c0.1-3.8-1.6-9.8-8.3-9.8
		c-6.1,0-8.7,5.6-9.2,9.8H271.8z M285,43.5c0-3.9-0.1-7.2-0.3-10.3h5.3l0.2,6.5h0.3c1.5-4.4,5.1-7.2,9.2-7.2c0.7,0,1.2,0.1,1.7,0.2
		v5.7c-0.6-0.1-1.2-0.2-2-0.2c-4.2,0-7.2,3.2-8.1,7.7c-0.1,0.8-0.3,1.8-0.3,2.8v17.6H285V43.5z M322,20.8c2.6-0.5,6.7-1,10.9-1
		c5.9,0,9.8,1,12.6,3.3c2.4,1.8,3.8,4.5,3.8,8.1c0,4.4-2.9,8.3-7.8,10.1v0.1c4.4,1.1,9.5,4.7,9.5,11.5c0,4-1.6,7-3.9,9.2
		c-3.2,2.9-8.4,4.3-15.9,4.3c-4.1,0-7.2-0.3-9.2-0.5V20.8z M328,39.6h5.4c6.3,0,10-3.3,10-7.7c0-5.4-4.1-7.5-10.1-7.5
		c-2.7,0-4.3,0.2-5.3,0.4V39.6z M328,61.7c1.2,0.2,2.9,0.3,5,0.3c6.1,0,11.8-2.3,11.8-8.9c0-6.3-5.4-8.9-11.9-8.9H328V61.7z
		 M365,20.2v46h-5.9v-46H365z"/>
</g>
</svg>
