<?xml version="1.0" encoding="utf-8"?>
<!-- Generator: Adobe Illustrator 19.2.0, SVG Export Plug-In . SVG Version: 6.00 Build 0)  -->
<svg version="1.1" id="Capa_1" xmlns="http://www.w3.org/2000/svg" xmlns:xlink="http://www.w3.org/1999/xlink" x="0px" y="0px"
	 viewBox="0 0 985 1070.9" style="enable-background:new 0 0 985 1070.9;" xml:space="preserve">
<style type="text/css">
	.st0{fill:#76D6FE;}
</style>
<path class="st0" d="M0,435.4c2-3.7,1.7-8,2.8-11.9C7.7,406.1,17,391.2,29,378c24.5-27,54.9-45.6,87.4-61.2
	c29.5-14.2,60.2-25.1,91.7-33.5c4.4-1.2,5.4-2.5,4.2-7.1c-7.7-29.1-13.4-58.6-16-88.6c-3.2-36.2-3.1-72.4,6.7-107.9
	c5.3-19,13.3-36.7,27.4-50.9C244,15.1,260.9,8.4,280.1,7.3c31.6-1.9,60.4,7.9,88.3,21.4c34.4,16.6,65.2,38.7,94.1,63.6
	c9.1,7.8,18.1,15.7,26.4,24.4c3.2,3.4,5.2,3.2,8.5,0C524,89.9,553,66,584.9,45.9c27.9-17.6,57.1-32.2,90-37.9
	c20.9-3.6,41.4-3.2,60.8,7.2c17.7,9.5,29,24.7,37.1,42.5c10.4,22.8,14.6,47.1,16.3,72c2.7,39-1.4,77.3-8.8,115.5
	c-2.1,10.9-4.3,21.8-7.3,32.6c-1,3.7,0.1,4.8,3.4,5.7c22.1,6.1,43.9,13.3,65.2,22c34.3,14.1,67.1,31.1,95.7,55.1
	c19.1,16.1,35.3,34.4,43.6,58.5c2,5.9,2.6,12.2,4.2,18.3c0,3.7,0,7.3,0,11c-2,3.7-1.7,8-2.8,11.9c-4.8,16.8-13.6,31.3-25.1,44.4
	c-20.2,23.1-45.2,40.2-71.8,54.9c-33.8,18.6-69.6,32.4-106.7,42.9c-3.3,0.9-4.6,1.8-3.5,5.6c7.2,26.2,12,52.8,14.7,79.8
	c3.9,38.4,3.5,76.7-6.8,114.4c-5.7,20.8-14.4,40.1-30,55.6c-14,13.9-31.3,20.6-50.7,21.5c-30.5,1.4-58.3-8.3-85.2-21.3
	c-30.8-14.9-58.4-34.6-84.4-56.5c-12-10.1-23.7-20.4-34.6-31.7c-2.9-3-4.5-2.4-7.2,0.2c-25.1,24.7-52.2,47-81.9,66
	c-26.8,17.1-54.9,31.4-86.1,38.8c-18.3,4.4-36.6,6.1-55.3,2c-23-5.1-39.3-18.7-51-38.5c-11.2-18.9-16.6-39.8-19.6-61.4
	c-2.5-17.7-3.5-35.5-2.7-53.3c1.5-33.4,6.3-66.4,14.1-99c1.1-4.5,2-9.1,3.4-13.5c1.2-4-0.2-5.6-4-6.6c-34.8-9.4-68.4-22.2-100.2-39
	c-28.1-14.9-54.4-32.3-76-56.1c-15.6-17.1-27.8-36.1-30.7-59.8c-0.1-0.4-0.6-0.8-0.8-1.2C0,444,0,439.7,0,435.4z M488.9,613.4
	c33.2,0.4,64.5-0.8,95.7-2.9c3.5-0.2,5.6-1.3,7.6-4.3c34.2-51.4,64.9-104.7,92-160.1c1.4-2.9,1.3-5-0.1-7.8
	c-11.4-23-23.4-45.6-36.1-67.9c-17.7-31.3-36.5-62-56.8-91.7c-1.3-1.9-2.5-3.2-5.1-3.4c-15.9-0.9-31.9-2.4-47.8-2.7
	c-19-0.3-37.9-0.8-56.9-0.6c-24.1,0.3-48.2,1.5-72.4,2.3c-9.1,0.3-15.1,3.3-20.4,11.4c-31.8,48.3-60.6,98.3-86.2,150.2
	c-2.5,5-2.3,9,0.1,13.9c11.9,23.9,24.2,47.5,37.4,70.6c17,29.8,35.2,58.9,54.5,87.2c1.1,1.6,2.2,2.6,4.3,2.7
	c8.5,0.5,16.9,1.4,25.4,1.7C446.5,613,468.6,614,488.9,613.4z M272.6,443.1c-0.8-2.2-1.5-4.3-2.4-6.2
	c-19.1-41.5-35.5-83.9-48.7-127.6c-1.2-4-2.9-4.3-6.5-3.2c-10.6,3.3-21.3,6.4-31.9,9.9c-35.6,11.7-69.6,26.6-100.7,47.7
	C63.9,376.3,47,390.8,34.8,410c-13.3,20.9-13.4,41.9-0.7,63c12.8,21.3,31.1,37.1,51.3,51c39.3,27,82.9,44.1,128.3,57.4
	c4.7,1.4,6.1,0.2,7.5-4.3c12.3-40.8,27.4-80.6,45-119.4C268.4,452.9,270.5,448,272.6,443.1z M218.1,736.3
	c-0.5,4.6,0.6,10.4,0.8,16.2c0.9,21.9,4.7,43.2,13.1,63.6c10.9,26.2,33.2,41,59,39.2c23.8-1.7,46-8.5,67.3-18.6
	c43.9-20.9,81.5-50.7,116.3-84.3c2.7-2.6,1.9-4-0.2-6.3c-13.6-14.6-26.9-29.5-39.6-44.9c-17.3-20.9-33.7-42.4-49.4-64.6
	c-1.4-2.1-3.2-2.9-5.8-3.2c-17.2-1.6-34.4-3-51.5-5.1c-29.3-3.6-58.5-8.6-87.3-15.2c-3.9-0.9-5,0.2-5.8,3.6
	c-1.5,6.6-3.2,13.2-4.7,19.9C223,668.9,218.7,701.8,218.1,736.3z M768,729.9c-0.4-21.5-2-42.5-5.2-63.4c-2.7-17.6-6.3-35-10.7-52.2
	c-0.6-2.4-1.1-4.6-4.5-3.7c-26.6,6.7-53.6,11.4-80.7,15.3c-18.2,2.6-36.5,5-54.9,6.3c-6.1,0.4-10.2,2.3-13.9,7.6
	c-25.5,37.3-53.1,72.8-84,105.8c-2.7,2.9-2.1,4.4,0.4,6.9c21.6,21.1,44.3,40.9,69.3,57.8c31.3,21.3,63.9,39.8,102.4,44.5
	c16.4,2,32.4,0.1,45.9-10.6c10.3-8.2,16.8-19.2,21.8-31.2C765,786.3,767.3,758.1,768,729.9z M218.8,150.3
	c-0.1,13.2,0.6,26.2,1.9,39.3c2.8,27.7,8.3,54.8,15,81.7c0.9,3.5,1.9,4.1,5.4,3.3c24.4-5.8,49.1-10.4,73.9-14.1
	c20.5-3.1,41.1-5.8,61.8-7.3c4-0.3,6.9-1.8,9.4-5.4c26.4-37.4,55-73.1,86.4-106.5c3-3.2,2.5-4.8-0.3-7.6
	c-10.6-10.4-21.6-20.3-33-29.7c-28.1-23.2-57.8-43.8-91.4-58.4c-21.4-9.3-43.4-16-67.1-14.4c-10.7,0.7-20.5,3.9-29,10.6
	c-11.7,9.3-18.1,22-22.9,35.6C220.7,101.2,218.4,125.6,218.8,150.3z M766,154.1c0.2-14.8-0.9-29.6-3.1-44.2
	c-2.8-18.5-7.6-36.5-17.5-52.6c-8.7-14.1-20.5-23.8-37.5-26.2c-17.1-2.4-33.5,0.6-49.6,5.8c-28.9,9.4-54.9,24.6-79.5,42.1
	c-23.3,16.5-44.8,35.1-65.2,55c-2.9,2.8-3.3,4.7-0.1,7.6c3.1,2.8,5.6,6.1,8.5,9.2c28.1,30.6,53.5,63.3,77.2,97.3
	c2.5,3.6,5.3,5.1,9.4,5.3c9.1,0.6,18.2,1.9,27.2,2.9c36.5,4.1,72.6,10.5,108.4,18.9c3.7,0.9,5.1-0.4,5.8-3.8
	c2.1-10.1,4.7-20.1,6.7-30.1C762.4,212.4,765.8,183.4,766,154.1z M960.3,439.8c0.4-5.6-1.7-12.9-5-19.9c-7.8-16.9-20.3-30-34.3-41.6
	c-20.5-17-43.4-30.1-67.5-41.4c-27.1-12.6-55.2-22.4-83.8-30.5c-2.6-0.8-4.3-1-5.4,2.5c-12.9,44.3-30.3,87-49.6,128.9
	c-1.5,3.3-1.3,5.8,0.1,8.9c5.7,12.2,11.3,24.5,16.8,36.8c13.1,29.7,24.4,60.1,34.3,91c2.3,7.4,1,6.4,7.8,4.4
	c37.6-11.1,74.1-25.1,108-44.9c23.3-13.6,45-29.2,61.8-50.6C953,471.3,960.2,458.2,960.3,439.8z M620.5,607.1c2,0,3.1,0.1,4.2,0
	c14.8-1.9,29.6-3.7,44.4-5.8c23.7-3.4,47.1-8,70.4-13.3c4-0.9,5-2.4,3.4-6c-0.5-1.2-0.8-2.5-1.2-3.8c-11.5-35.4-25.1-70.1-40.6-104
	c-0.5-1-0.6-2.6-1.9-2.7c-1.6-0.1-1.8,1.7-2.3,2.9c-20.2,39.6-42,78.3-65.8,115.8C627.7,595.7,624.3,601.1,620.5,607.1z
	 M365.4,607.5c-29.3-44.2-55.2-89.2-79-136.3c-3.8,8.8-7.2,16.5-10.5,24.4c-12.1,29.4-23,59.2-32.2,89.7c-0.8,2.5-0.9,3.8,2.3,4.4
	c7.5,1.3,14.9,3.3,22.4,4.8c23.3,4.6,46.8,8.1,70.4,10.9C347.3,606.2,355.7,607.5,365.4,607.5z M414.8,635.8
	c0.9,1.4,1.3,2.1,1.7,2.8c23.1,31.6,48,61.6,74.6,90.4c2.6,2.8,4,2.2,6.2-0.2c23.1-25,44.3-51.4,64.3-78.8c3.4-4.6,7.3-8.9,9.9-14.5
	C519.2,638.4,467.4,638.2,414.8,635.8z M571,250.3c-1.2-1.9-1.9-3.2-2.7-4.4c-22.1-30.4-45.9-59.6-71.4-87.3c-3.3-3.6-5.1-3-8,0.2
	c-21.4,23.3-41.8,47.4-61,72.6c-4.6,6-9,12.1-14.1,18.9c27-2.1,52.9-2.6,78.8-2.6C518.6,247.7,544.5,248.2,571,250.3z M699,414.4
	c4.5-10.4,8.5-19.5,12.3-28.7c11.2-26.7,20.9-53.9,29.6-81.5c1-3.3,1.2-5-3.3-6c-23.1-5.4-46.4-9.7-69.9-13.4
	c-15.4-2.4-30.8-4.2-46.5-6.2c0.1,1,0,1.6,0.2,1.9C649.4,323.3,675,367.6,699,414.4z M364.6,279.2c-0.6-0.4-0.7-0.5-0.8-0.5
	c-4.6,0.5-9.2,1.1-13.8,1.6c-34.2,3.8-68,9.8-101.6,17.2c-3.4,0.7-5.1,1.6-3.7,5.9c8.1,26.1,17.1,51.8,27.4,77.1
	c4.5,11.2,9.3,22.3,14.3,34.2c12.2-24,24.4-47,37.4-69.4C336.7,322.8,350.3,300.8,364.6,279.2z"/>
<path class="st0" d="M552.8,1038.4c0-23.1,0-46.2,0-69.4c0-4,0.1-8,0-12c-0.1-2.6,0.9-3.4,3.5-3.5c9.8-0.5,9.8-0.6,9.8,9.2
	c0,29.8-0.1,59.6,0.1,89.5c0,4.1-1.2,4.9-5.2,5.4c-10.4,1.4-15.7-2.5-20.3-12.1c-11.2-23.4-24-46-36.2-69c-0.5-1-1.2-1.9-1.9-3
	c-1.5,2.2-1.1,4.4-1.1,6.5c0,22.8,0,45.6,0,68.4c0,9-2.9,11.1-11.6,9c-2.5-0.6-1.9-2.4-1.9-3.9c-0.1-7,0-14,0-21
	c0-24.7,0.1-49.3-0.1-74c0-3.9,1-5.1,5-5.1c13.9,0.1,13.8,0,20.1,12.1c12.5,23.7,25,47.4,37.6,71.1c0.4,0.7,0.9,1.3,1.3,2
	C552.2,1038.6,552.5,1038.5,552.8,1038.4z"/>
<path class="st0" d="M92.1,1008.9c6.9,4.3,11.2,10.2,14.5,16.9c4.7,9.2,9.2,18.5,14,27.6c1.8,3.5,0.8,3.7-2.6,4.2
	c-8,1.2-12.4-1.9-15.3-9.4c-2.9-7.6-7.4-14.5-11-21.9c-4.5-9.2-12.1-12.8-21.9-12.8c-3.3,0-6.7,0.2-10-0.1c-3.1-0.2-4,1-4,4
	c0.1,11.7-0.1,23.3,0.1,35c0.1,3.9-1,5.2-5,5c-9.1-0.2-9.1,0-9.1-9.3c0-29.8,0.1-59.6-0.1-89.5c0-4.2,1.2-5.4,5.3-5.2
	c13.4,0.6,27-1.3,40.3,1.9c19.9,4.7,28.5,29.3,16,45.6C100.6,1004.7,96.5,1006.6,92.1,1008.9z M69,965.4c-3.8,0-6.9,0.1-10.1,0
	c-2.2-0.1-2.9,0.9-2.9,3c0.1,10.3,0,20.6,0,30.9c0,2.1,0.7,3.1,2.9,3c7.1-0.3,14.3,0.7,21.4-0.8c8.3-1.7,13.2-7.3,13.8-16
	c0.6-9.9-3.4-16.2-11.8-19C77.6,965,73,965.5,69,965.4z"/>
<path class="st0" d="M268.5,1047c-9.8,12.4-22.5,14.9-36.7,10.7c-9.4-2.7-15.3-11-15.7-20.9c-0.5-10.7,3-19.4,13-24.4
	c5.3-2.6,11-3.8,16.9-4c6.3-0.2,12.7-0.2,19,0c3.4,0.1,4.4-1,3.9-4.3c-1.3-7.5-6.9-13.4-14.4-14.6c-9.4-1.5-18.5-0.5-27.3,3.2
	c-5.1,2.2-4.8,2.2-5.2-3.1c-0.4-5,1.3-7.5,6.3-8.7c9.8-2.4,19.4-4.1,29.5-2.4c14,2.3,23.4,13.2,24,30c0.6,15.1,0.1,30.3,0.2,45.5
	c0,2.6-0.8,3.4-3.4,3.5C269.9,1057.8,269.9,1057.9,268.5,1047z M257.2,1018.4c-6.2-0.1-12.3,0.1-18.2,1.9
	c-7.6,2.3-10.9,7.9-9.9,16.1c0.8,6.4,6.5,11.5,13.3,12c14.7,1.1,24.7-7.3,26.5-22.1c1-7.9,1-7.9-7.2-7.9
	C260.2,1018.4,258.7,1018.4,257.2,1018.4z"/>
<path class="st0" d="M640.8,1047.1c-9.2,11.5-20.7,14-33.6,11.4c-10.5-2.2-17.5-10.1-18.2-19.8c-0.9-14.5,3.7-22.9,15-27.3
	c9.3-3.6,19-2.8,28.6-3.1c2.8-0.1,6.9,1.8,8.2-1.2c1.6-3.9-0.2-8.2-3.1-11.5c-5.3-6.1-12.6-7.1-20-6.8c-7,0.3-13.8,1.7-20.2,4.9
	c-2.5,1.3-3.1,0.3-3.3-2.2c-0.5-8-0.6-8.1,7-10.5c9.5-3,19.1-4.1,29-2.5c13.5,2.2,23.3,12.9,23.8,27.5c0.5,16,0.2,32,0.3,47.9
	c0,2.5-0.7,3.4-3.4,3.6C641.8,1057.8,641.8,1058,640.8,1047.1z M618.1,1048.5c14.3,0.7,24.2-12.4,23.1-27.7c-0.1-1.3-0.5-2.3-2-2.3
	c-10.1,0.1-20.3-1.1-30.1,2.8c-4.3,1.7-6.9,4.9-7.3,9.8C601,1042.7,606.3,1048.4,618.1,1048.5z"/>
<path class="st0" d="M923,1041.8c0,3.4,0,6.3,0,9.3c0,1.5-0.4,2.6-1.9,3.2c-17,6.2-34,8.7-50.4-1.1c-10-5.9-14.8-15.5-16.1-26.8
	c-1.6-13,0.2-25.2,8.6-35.8c8.8-11,25.4-15.7,39.9-11.2c13.1,4,21.8,15.5,22.8,30.3c0.9,11.9,0.9,11.9-10.9,11.9c-14,0-28,0-42,0
	c-5.5,0-6,0.7-4.9,6.1c2.7,12.9,11.7,20.4,24.9,20.9c8.5,0.3,16.5-1.2,24.3-4.5C919.1,1043.2,920.8,1042.6,923,1041.8z
	 M890.2,1011.5C890.2,1011.5,890.2,1011.5,890.2,1011.5c5.6,0,11.3,0,16.9,0c6.5,0,7.1-0.8,5.3-7.3c-2.9-10.3-12-16.7-22-15.6
	c-12.8,1.5-21.4,9.5-22.2,20.4c-0.2,2.7,1.4,2.5,3.1,2.5C877.6,1011.5,883.9,1011.5,890.2,1011.5z"/>
<path class="st0" d="M170.5,1021.5c-8.2,0-16.3,0.2-24.5-0.1c-3.9-0.1-4.4,1.6-4,4.8c1.5,12.7,11.1,21.6,24.2,22.2
	c9,0.5,17.6-1.1,25.7-4.8c3.4-1.6,5-1.8,5.3,3.1c0.3,5.6-1.7,8-6.9,9.4c-13.4,3.6-26.8,5.3-40.1-0.1c-14.2-5.8-20.7-17.3-22-31.8
	c-1.1-12.2,0.9-23.8,9-33.8c8.9-10.9,25.7-15.6,40.4-10.9c12.7,4,21.5,16.2,22.3,30.7c0.6,11.3,0.6,11.3-10.5,11.3
	C183.1,1021.5,176.8,1021.5,170.5,1021.5z M164,1011.5C164,1011.5,164,1011.5,164,1011.5c5.6,0,11.3,0,16.9,0c6.8,0,7.3-0.8,5.4-7.6
	c-3-10.1-11.8-16.4-21.6-15.4c-12.8,1.3-21.1,8.9-22.4,20.2c-0.3,3.1,1.5,2.7,3.3,2.7C151.7,1011.5,157.8,1011.5,164,1011.5z"/>
<path class="st0" d="M804.5,1044.3c7.4-19.8,14.7-38.7,21.4-57.9c1.9-5.4,4.3-7.6,10.2-7c6,0.6,6.1,0.2,4,5.9
	c-8.5,22.7-17.1,45.4-25.5,68.2c-1.1,3.1-2.6,4-5.8,4c-12.9,0-13.1,0.2-17.6-11.9c-7.7-20.2-15.2-40.5-22.8-60.7
	c-2-5.3-1.9-5.4,3.9-5.3c9.3,0.2,7-1.8,10.6,7.6c6.9,18,13.4,36.2,20.2,54.2C803.4,1042.2,803.8,1042.9,804.5,1044.3z"/>
<path class="st0" d="M680.1,1014.1c0-6.7-0.1-13.3,0.1-20c0.1-3.3-0.7-5.2-4.4-4.6c-4.1,0.7-4.9-1.3-5-5c0-3.9,1-5.6,5-5
	c3.2,0.5,4.4-0.9,4.3-4.2c-0.2-4.7,0-9.3-0.1-14c-0.1-2.6,0.6-3.8,3.6-3.9c9.4-0.3,9.4-0.5,9.4,9.1c0,13.1,0,13.1,12.8,13.1
	c2.8,0,5.7,0.2,8.5-0.1c4.1-0.4,5.4,1.1,5.5,5.3c0.1,4.3-1.8,4.9-5.4,4.8c-5.8-0.2-11.7,0-17.5-0.1c-2.2,0-4.1,0.2-4,3.1
	c0.4,15.1-1,30.3,0.8,45.4c0.8,6.5,3,8.2,9.5,8.4c4.2,0.2,8.3,0.2,12.5,0.1c5.1-0.2,3.6,3.6,3.9,6.3c0.2,2.7,0.1,5-3.7,4.7
	c-6.6-0.5-13.3,0.6-19.9-0.9c-11.1-2.5-15.4-8.4-15.9-21.9c0-0.5,0-1,0-1.5C680.2,1026.8,680.2,1020.4,680.1,1014.1
	C680.2,1014.1,680.1,1014.1,680.1,1014.1z"/>
<path class="st0" d="M364,994.5c-8.7-4-16.6-6.3-25.4-5.4c-11,1.1-17.6,7.1-20.8,17.3c-2.4,7.8-2.5,15.7-0.2,23.6
	c4.1,14.1,16,21,31,18c4.3-0.8,8.4-2.1,12.3-4c2.1-1,2.9-0.6,3.1,1.8c0.8,8.2,0.5,9.2-7.4,11.3c-14.2,3.7-28,3.9-40.4-5.8
	c-4.6-3.6-7.9-8.1-10.1-13.4c-4.5-11.2-5-22.8-1.6-34.2c5.9-20.2,22.6-27,40.5-26c4.6,0.3,9.2,1.2,13.7,2.6c3.8,1.2,6.2,2.9,5.4,7.4
	C363.7,989.8,364,991.8,364,994.5z"/>
<path class="st0" d="M386,1014.4c0-6.8-0.2-13.7,0.1-20.5c0.1-3.6-1.1-5-4.5-4.4c-4.4,0.8-4.6-1.8-4.8-5.3c-0.1-3.7,0.9-5.4,4.8-4.8
	c3.4,0.5,4.7-0.9,4.5-4.4c-0.3-4.6,0.1-9.3-0.1-14c-0.1-2.9,1.1-3.6,3.8-3.7c9.2-0.2,9.2-0.3,9.2,9.2c0,12.9,0,12.9,13,12.9
	c2.5,0,5,0.3,7.5-0.1c4.8-0.7,5.9,1.5,5.7,5.9c-0.1,3.3-1.1,4.3-4.3,4.2c-6.2-0.2-12.3,0-18.5-0.1c-1.8,0-3.4,0.1-3.3,2.5
	c0.4,15.5-1,31,0.7,46.4c0.7,5.8,3,7.6,8.9,8c4.3,0.2,8.7,0.2,13,0.1c5.1-0.1,3.2,3.6,3.4,6c0.2,2.4,0.8,5.2-3.4,4.9
	c-6.6-0.4-13.3,0.6-19.9-0.9c-10.7-2.5-15.2-8.4-15.6-21.1c0-0.3,0-0.7,0-1C386.1,1027.7,386.1,1021.1,386,1014.4
	C386.1,1014.4,386.1,1014.4,386,1014.4z"/>
<path class="st0" d="M749,1018.9c0,11.3-0.1,22.6,0.1,33.9c0,3.3-0.6,4.8-4.3,4.6c-10.4-0.4-8.6,1.2-8.6-8.8
	c-0.1-21.3,0.1-42.6-0.1-63.8c-0.1-4.6,1.4-6,5.6-5.4c1.1,0.2,2.3,0.1,3.5,0c3.1-0.4,4,1,3.9,4C748.9,995.3,749,1007.1,749,1018.9z"
	/>
<path class="st0" d="M736.1,957.9c0-2,0.1-3.4,0-4.7c-0.3-2.8,0.8-3.7,3.7-3.8c9.3-0.3,9.4-0.4,9.2,9.1c0,2.3,1.6,5.8-1.4,6.6
	c-3.2,0.9-7.3,1.1-10.3-0.2C734.5,963.8,736.9,959.8,736.1,957.9z"/>
<path class="st0" d="M492.8,352.4c49.2,0,89.2,40.1,89.2,89.3c0,49.7-39.9,89.7-89.3,89.8c-49.7,0-89.8-40-89.7-89.8
	C403,392.2,443.1,352.4,492.8,352.4z"/>
</svg>
