<?xml version="1.0" encoding="utf-8"?>
<!-- Generator: Adobe Illustrator 19.2.0, SVG Export Plug-In . SVG Version: 6.00 Build 0)  -->
<svg version="1.1" id="Capa_1" xmlns="http://www.w3.org/2000/svg" xmlns:xlink="http://www.w3.org/1999/xlink" x="0px" y="0px"
	 viewBox="0 0 160 50" style="enable-background:new 0 0 160 50;" xml:space="preserve">
<style type="text/css">
	.st0{fill:#F05138;}
	.st1{fill:#FFFFFF;}
</style>
<path class="st0" d="M49.5,13.7c0-0.5,0-1,0-1.5c0-1.1-0.1-2.2-0.3-3.3c-0.2-1.1-0.5-2.1-1-3.1c-0.5-1-1.1-1.9-1.9-2.6
	c-0.8-0.8-1.7-1.4-2.6-1.9c-1-0.5-2-0.8-3.1-1c-1.1-0.2-2.2-0.3-3.3-0.3c-0.5,0-1,0-1.5,0c-0.6,0-1.2,0-1.8,0H20.9h-5.4
	c-0.6,0-1.2,0-1.8,0c-0.5,0-1,0-1.5,0c-0.3,0-0.5,0-0.8,0c-0.8,0-1.6,0.1-2.4,0.3C8.1,0.5,7.4,0.7,6.6,1C6.4,1.1,6.1,1.2,5.9,1.3
	c-0.7,0.4-1.4,0.8-2,1.4C3.6,2.9,3.4,3,3.2,3.2C2.5,4,1.8,4.9,1.3,5.9c-0.5,1-0.8,2-1,3.1C0.1,10,0.1,11.1,0,12.2c0,0.5,0,1,0,1.5
	c0,0.6,0,1.2,0,1.8v8.1V34c0,0.6,0,1.2,0,1.8c0,0.5,0,1,0,1.5c0,1.1,0.1,2.2,0.3,3.3c0.2,1.1,0.5,2.1,1,3.1c0.5,1,1.1,1.9,1.9,2.6
	C4,47,4.9,47.7,5.9,48.2c1,0.5,2,0.8,3.1,1c1.1,0.2,2.2,0.3,3.3,0.3c0.5,0,1,0,1.5,0c0.6,0,1.2,0,1.8,0H34c0.6,0,1.2,0,1.8,0
	c0.5,0,1,0,1.5,0c1.1,0,2.2-0.1,3.3-0.3c1.1-0.2,2.1-0.5,3.1-1c1-0.5,1.9-1.1,2.6-1.9c0.8-0.8,1.4-1.7,1.9-2.6c0.5-1,0.8-2,1-3.1
	c0.2-1.1,0.3-2.2,0.3-3.3c0-0.5,0-1,0-1.5c0-0.6,0-1.2,0-1.8V15.5C49.5,14.9,49.5,14.3,49.5,13.7z"/>
<path class="st1" d="M39.2,30.6C39.2,30.5,39.2,30.5,39.2,30.6c0.1-0.2,0.1-0.4,0.2-0.6c2.1-8.2-3-17.9-11.4-23
	c3.7,5,5.4,11.1,3.9,16.5c-0.1,0.5-0.3,0.9-0.5,1.4c-0.2-0.1-0.4-0.3-0.7-0.4c0,0-8.4-5.2-17.6-14.4c-0.2-0.2,4.9,7.3,10.7,13.4
	C21,21.9,13.4,16.4,8.5,12c0.6,1,1.3,1.9,2.1,2.9c4,5.1,9.3,11.4,15.6,16.3c-4.4,2.7-10.7,2.9-16.9,0c-1.5-0.7-3-1.6-4.3-2.6
	c2.6,4.2,6.7,7.9,11.6,10c5.9,2.5,11.7,2.4,16.1,0l0,0c0,0,0,0,0.1,0c0.2-0.1,0.4-0.2,0.5-0.3c2.1-1.1,6.2-2.2,8.5,2.1
	C42.3,41.4,43.5,35.8,39.2,30.6z"/>
<path d="M68.3,32.1c0.4,3.4,3.7,5.7,8.2,5.7c4.3,0,7.4-2.3,7.4-5.4c0-2.7-1.9-4.3-6.2-5.4L73.5,26c-6-1.5-8.8-4.2-8.8-8.7
	c0-5.5,4.8-9.4,11.7-9.4c6.7,0,11.4,3.9,11.6,9.4h-4.4c-0.3-3.4-3.1-5.5-7.3-5.5c-4.1,0-7,2.1-7,5.2c0,2.4,1.8,3.8,6.1,5l3.5,0.9
	c6.8,1.7,9.6,4.3,9.6,9.1c0,6-4.8,9.8-12.4,9.8c-7.1,0-11.9-3.8-12.3-9.6L68.3,32.1L68.3,32.1z M116.7,41.2h-4.5L107,23H107
	l-5.2,18.1h-4.5l-6.6-23.8H95l4.6,19.1h0.1l5.2-19.1h4.2l5.2,19.1h0.1l4.6-19.1h4.3L116.7,41.2z M126.2,11c0-1.4,1.2-2.6,2.6-2.6
	c1.5,0,2.6,1.2,2.6,2.6c0,1.4-1.2,2.6-2.6,2.6C127.3,13.7,126.2,12.5,126.2,11z M126.6,17.4h4.3v23.8h-4.3V17.4z M159.3,20.9v-3.5
	h-4.6v-5.7h-4.3v5.7h-3.5h-4.8v-2.1c0-2.1,0.8-3,2.8-3c0.6,0,1.3,0.1,1.8,0.2V9.1c-0.8-0.1-1.5-0.2-2.3-0.2c-4.6,0-6.6,1.9-6.6,6.4
	v2.2h-3.3v3.5h3.3v20.3h4.3V20.9h4.8h3.5v14c0,4.6,1.8,6.4,6.3,6.4c1,0,2.1-0.1,2.6-0.2v-3.5c-0.3,0-1.2,0.1-1.6,0.1
	c-2,0-2.9-1-2.9-3.1V20.9L159.3,20.9z"/>
</svg>
