<?xml version="1.0" encoding="utf-8"?>
<!-- Generator: Adobe Illustrator 19.2.0, SVG Export Plug-In . SVG Version: 6.00 Build 0)  -->
<svg version="1.1" id="Capa_1" xmlns="http://www.w3.org/2000/svg" xmlns:xlink="http://www.w3.org/1999/xlink" x="0px" y="0px"
	 viewBox="0 0 2500 567" style="enable-background:new 0 0 2500 567;" xml:space="preserve">
<style type="text/css">
	.st0{fill:#00749A;}
	.st1{fill:#464342;}
</style>
<path class="st0" d="M1449.9,223.2h-98.4v10.4c30.8,0,35.7,6.6,35.7,45.6v70.4c0,39-4.9,46.2-35.7,46.2
	c-23.6-3.3-39.6-15.9-61.5-40.1l-25.3-27.5c34.1-6.1,52.2-27.5,52.2-51.7c0-30.2-25.8-53.3-74.2-53.3H1146v10.4
	c30.8,0,35.7,6.6,35.7,45.6v70.4c0,39-4.9,46.2-35.7,46.2v10.4h109.4v-10.4c-30.8,0-35.7-7.1-35.7-46.2v-19.8h9.3l61,76.4h159.9
	c78.6,0,112.7-41.8,112.7-91.8C1562.5,264.4,1528.5,223.2,1449.9,223.2L1449.9,223.2z M1219.6,312.7v-73.1h22.5
	c24.7,0,35.7,17,35.7,36.8c0,19.2-11,36.3-35.7,36.3L1219.6,312.7z M1451.5,389.1h-3.9c-19.8,0-22.5-4.9-22.5-30.2V239.7h26.4
	c57.2,0,67.6,41.8,67.6,74.2C1519.1,347.4,1508.7,389.1,1451.5,389.1z M839.9,333.1L877.8,221c11-32.4,6-41.8-29.1-41.8v-11H952v11
	c-34.6,0-42.9,8.2-56.6,48.4l-62.7,187.9h-7.1l-56.1-172l-57.2,172h-7.1l-61-187.9c-13.2-40.1-22-48.4-53.9-48.4v-11h122v11
	c-32.4,0-41.2,7.7-29.7,41.8l36.8,112.1L775,168.2h10.4L839.9,333.1L839.9,333.1z M1026.7,413.3c-60.4,0-109.9-44.5-109.9-98.9
	c0-53.9,49.5-98.4,109.9-98.4c60.5,0,109.9,44.5,109.9,98.4C1136.6,368.8,1087.2,413.3,1026.7,413.3z M1026.7,233.1
	c-50.6,0-68.1,45.6-68.1,81.3c0,36.3,17.6,81.3,68.1,81.3c51.1,0,68.7-45.1,68.7-81.3C1095.4,278.7,1077.8,233.1,1026.7,233.1
	L1026.7,233.1z"/>
<path class="st1" d="M1698.3,395.2v11h-125.8v-11c36.8,0,43.4-9.3,43.4-64.3V243c0-55-6.6-63.7-43.4-63.7v-11h113.8
	c56.6,0,87.9,29.1,87.9,68.2c0,37.9-31.3,67.6-87.9,67.6h-31.3v26.9C1654.8,385.8,1661.4,395.2,1698.3,395.2L1698.3,395.2z
	 M1686.2,188h-31.3v95.6h31.3c30.8,0,45.1-21.4,45.1-47.3C1731.2,210,1716.9,188,1686.2,188z M2151.6,354.5l-2.8,9.9
	c-4.9,18.1-11,24.7-50,24.7h-7.7c-28.6,0-33.5-6.6-33.5-45.6v-25.3c42.9,0,46.2,3.8,46.2,32.4h10.4v-81.9h-10.4
	c0,28.6-3.3,32.4-46.2,32.4v-61.5h30.2c39,0,45.1,6.6,50,24.7l2.8,10.4h8.8l-3.8-51.7H1984v10.4c30.8,0,35.7,6.6,35.7,45.6v70.3
	c0,35.7-4.2,44.7-28.5,46c-23.1-3.5-38.9-16.1-60.6-39.9l-25.3-27.5c34.1-6.1,52.2-27.5,52.2-51.7c0-30.2-25.8-53.3-74.2-53.3h-96.7
	v10.4c30.8,0,35.7,6.6,35.7,45.6v70.4c0,39-4.9,46.2-35.7,46.2v10.4h109.4v-10.4c-30.8,0-35.7-7.1-35.7-46.2v-19.8h9.3l61,76.4
	h225.9l3.3-51.6L2151.6,354.5L2151.6,354.5z M1860.4,312.7v-73.1h22.5c24.7,0,35.7,17,35.7,36.8c0,19.2-11,36.3-35.7,36.3
	L1860.4,312.7z M2263.2,413.3c-22,0-41.2-11.5-49.5-18.7c-2.8,2.8-7.7,11-8.8,18.7h-10.4v-75.8h11c4.4,36.3,29.7,57.7,62.1,57.7
	c17.6,0,31.9-9.9,31.9-26.4c0-14.3-12.6-25.3-35.2-35.7l-31.3-14.8c-22-10.4-38.5-28.6-38.5-52.8c0-26.4,24.7-48.9,58.8-48.9
	c18.1,0,33.5,6.6,42.9,14.3c2.7-2.2,5.5-8.2,7.1-14.8h10.4v64.9h-11.5c-3.9-25.8-18.1-47.3-47.3-47.3c-15.4,0-29.7,8.8-29.7,22.5
	c0,14.3,11.5,22,37.9,34.1l30.2,14.8c26.4,12.6,36.8,33,36.8,49.5C2330.2,389.1,2300,413.3,2263.2,413.3L2263.2,413.3z
	 M2432.4,413.3c-22,0-41.2-11.5-49.5-18.7c-2.7,2.8-7.7,11-8.8,18.7h-10.4v-75.8h11c4.4,36.3,29.7,57.7,62.1,57.7
	c17.6,0,31.9-9.9,31.9-26.4c0-14.3-12.6-25.3-35.2-35.7l-31.3-14.8c-22-10.4-38.5-28.6-38.5-52.8c0-26.4,24.7-48.9,58.8-48.9
	c18.1,0,33.5,6.6,42.9,14.3c2.7-2.2,5.5-8.2,7.1-14.8h10.4v64.9h-11.5c-3.9-25.8-18.1-47.3-47.3-47.3c-15.4,0-29.7,8.8-29.7,22.5
	c0,14.3,11.5,22,37.9,34.1l30.2,14.8c26.4,12.6,36.8,33,36.8,49.5C2499.5,389.1,2469.3,413.3,2432.4,413.3L2432.4,413.3z"/>
<g>
	<path class="st1" d="M40.8,283.5c0,96.3,55.9,179.5,137.1,218.9l-116-317.9C48,215.7,40.8,249.4,40.8,283.5z M448.2,271.2
		c0-30.1-10.8-50.9-20.1-67.1c-12.3-20-23.9-37-23.9-57c0-22.4,17-43.2,40.8-43.2c1.1,0,2.1,0.1,3.2,0.2
		C405,64.5,347.3,40.3,284,40.3c-85,0-159.7,43.6-203.2,109.6c5.7,0.2,11.1,0.3,15.7,0.3c25.4,0,64.8-3.1,64.8-3.1
		c13.1-0.8,14.7,18.5,1.6,20c0,0-13.2,1.6-27.8,2.3l88.6,263.4l53.2-159.6l-37.9-103.8c-13.1-0.8-25.5-2.3-25.5-2.3
		c-13.1-0.8-11.6-20.8,1.5-20c0,0,40.2,3.1,64.1,3.1c25.4,0,64.8-3.1,64.8-3.1c13.1-0.8,14.7,18.5,1.6,20c0,0-13.2,1.6-27.8,2.3
		l87.9,261.4l24.3-81.1C440.2,316.2,448.2,292,448.2,271.2z"/>
	<path class="st1" d="M288.3,304.8l-73,212c22.3,6.6,45.4,9.9,68.7,9.9c27.5,0,54.8-4.7,80.8-13.8c-0.7-1.1-1.3-2.2-1.7-3.4
		L288.3,304.8z M497.4,166.8c1.1,7.7,1.6,16.1,1.6,25c0,24.7-4.6,52.4-18.5,87.1l-74.3,214.8c72.3-42.2,120.9-120.5,120.9-210.2
		C527.3,242.7,517,202.6,497.4,166.8L497.4,166.8z"/>
	<path class="st1" d="M284,0C127.7,0,0.5,127.2,0.5,283.5C0.5,439.8,127.7,567,284,567c156.3,0,283.5-127.2,283.5-283.5
		C567.5,127.2,440.3,0,284,0z M284,554C134.9,554,13.5,432.7,13.5,283.5C13.5,134.3,134.9,13,284,13
		c149.1,0,270.5,121.3,270.5,270.5C554.5,432.7,433.2,554,284,554L284,554z"/>
</g>
</svg>
